Topmarks-Bold.ufo
<glyph name="numbersign" format="1">
  <advance width="2093.1"/>
  <unicode hex="0023"/>
  <outline>
    <contour>
      <point x="266.0" y="101.4" type="line"/>
      <point x="435.4" y="101.4" type="line"/>
      <point x="530.0" y="593.0" type="line"/>
      <point x="831.5" y="593.0" type="line"/>
      <point x="739.8" y="101.4" type="line"/>
      <point x="907.3" y="101.4" type="line"/>
      <point x="1002.9" y="593.0" type="line"/>
      <point x="1303.4" y="593.0" type="line"/>
      <point x="1320.1" y="737.9" type="line"/>
      <point x="1028.5" y="737.9" type="line"/>
      <point x="1087.6" y="1057.0" type="line"/>
      <point x="1376.3" y="1057.0" type="line"/>
      <point x="1393.0" y="1199.9" type="line"/>
      <point x="1114.2" y="1199.9" type="line"/>
      <point x="1204.8" y="1674.7" type="line"/>
      <point x="1035.4" y="1674.7" type="line"/>
      <point x="946.8" y="1199.9" type="line"/>
      <point x="645.3" y="1199.9" type="line"/>
      <point x="734.9" y="1674.7" type="line"/>
      <point x="565.5" y="1674.7" type="line"/>
      <point x="473.9" y="1199.9" type="line"/>
      <point x="162.5" y="1199.9" type="line"/>
      <point x="146.8" y="1057.0" type="line"/>
      <point x="449.2" y="1057.0" type="line"/>
      <point x="429.5" y="949.6"/>
      <point x="409.8" y="847.2"/>
      <point x="391.1" y="737.9" type="curve"/>
      <point x="84.7" y="737.9" type="line"/>
      <point x="71.9" y="593.0" type="line"/>
      <point x="363.5" y="593.0" type="line"/>
    </contour>
    <contour>
      <point x="555.6" y="737.9" type="line"/>
      <point x="618.6" y="1057.0" type="line"/>
      <point x="920.1" y="1057.0" type="line"/>
      <point x="861.0" y="737.9" type="line"/>
    </contour>
  </outline>
</glyph>
<glyph name="dollar" format="1">
  <advance width="2010.4"/>
  <unicode hex="0024"/>
  <outline>
    <contour>
      <point x="694.2" y="-289.9" type="line"/>
      <point x="837.0" y="-289.9" type="line"/>
      <point x="833.1" y="-103.7" type="line"/>
      <point x="899.1" y="-96.9"/>
      <point x="962.2" y="-85.0"/>
      <point x="1021.3" y="-63.3" type="curve" smooth="yes"/>
      <point x="1180.9" y="-5.2"/>
      <point x="1322.8" y="113.1"/>
      <point x="1322.8" y="325.9" type="curve" smooth="yes"/>
      <point x="1322.8" y="460.8"/>
      <point x="1274.5" y="541.6"/>
      <point x="1198.6" y="607.6" type="curve" smooth="yes"/>
      <point x="1101.1" y="692.3"/>
      <point x="975.0" y="744.5"/>
      <point x="833.1" y="799.7" type="curve"/>
      <point x="835.1" y="1411.5" type="line"/>
      <point x="977.0" y="1407.5"/>
      <point x="1089.3" y="1368.1"/>
      <point x="1171.0" y="1295.2" type="curve"/>
      <point x="1227.2" y="1443.0" type="line"/>
      <point x="1134.6" y="1521.8"/>
      <point x="996.7" y="1570.1"/>
      <point x="834.1" y="1573.1" type="curve"/>
      <point x="830.2" y="1730.7" type="line"/>
      <point x="687.3" y="1730.7" type="line"/>
      <point x="692.2" y="1572.0" type="line"/>
      <point x="561.2" y="1562.1"/>
      <point x="449.9" y="1502.1"/>
      <point x="373.1" y="1430.2" type="curve" smooth="yes"/>
      <point x="299.2" y="1360.2"/>
      <point x="233.1" y="1255.8"/>
      <point x="233.1" y="1119.9" type="curve" smooth="yes"/>
      <point x="233.1" y="1055.8"/>
      <point x="245.9" y="1000.7"/>
      <point x="269.6" y="955.3" type="curve" smooth="yes"/>
      <point x="352.3" y="802.6"/>
      <point x="525.7" y="733.6"/>
      <point x="692.2" y="658.8" type="curve"/>
      <point x="687.4" y="55.9" type="line"/>
      <point x="560.3" y="61.8"/>
      <point x="450.8" y="110.0"/>
      <point x="364.2" y="167.2" type="curve"/>
      <point x="308.0" y="11.6" type="line"/>
      <point x="410.5" y="-62.3"/>
      <point x="528.7" y="-106.6"/>
      <point x="689.3" y="-109.6" type="curve"/>
    </contour>
    <contour>
      <point x="830.2" y="59.9" type="curve"/>
      <point x="835.1" y="609.5" type="line"/>
      <point x="959.2" y="556.3"/>
      <point x="1116.8" y="495.3"/>
      <point x="1116.8" y="322.9" type="curve" smooth="yes"/>
      <point x="1116.8" y="285.4"/>
      <point x="1108.0" y="251.9"/>
      <point x="1093.2" y="221.4" type="curve" smooth="yes"/>
      <point x="1047.8" y="131.7"/>
      <point x="950.4" y="76.6"/>
    </contour>
    <contour>
      <point x="689.3" y="854.9" type="line"/>
      <point x="565.2" y="901.2"/>
      <point x="451.8" y="965.2"/>
      <point x="451.8" y="1134.6" type="curve" smooth="yes"/>
      <point x="451.8" y="1289.3"/>
      <point x="553.3" y="1386.9"/>
      <point x="692.2" y="1404.6" type="curve"/>
    </contour>
  </outline>
</glyph>
<glyph name="percent" format="1">
  <advance width="3344.0"/>
  <unicode hex="0025"/>
  <outline>
    <contour>
      <point x="691.0" y="778.7" type="curve" smooth="yes"/>
      <point x="754.1" y="778.7"/>
      <point x="810.3" y="791.4"/>
      <point x="861.5" y="814.1" type="curve" smooth="yes"/>
      <point x="1003.4" y="879.1"/>
      <point x="1102.9" y="1018.0"/>
      <point x="1102.9" y="1221.0" type="curve" smooth="yes"/>
      <point x="1102.9" y="1482.1"/>
      <point x="960.0" y="1659.4"/>
      <point x="697.0" y="1659.4" type="curve" smooth="yes"/>
      <point x="633.9" y="1659.4"/>
      <point x="575.8" y="1648.6"/>
      <point x="524.6" y="1625.9" type="curve" smooth="yes"/>
      <point x="381.7" y="1561.9"/>
      <point x="283.2" y="1420.0"/>
      <point x="283.2" y="1216.1" type="curve" smooth="yes"/>
      <point x="283.2" y="1155.0"/>
      <point x="292.1" y="1097.8"/>
      <point x="310.8" y="1044.6" type="curve" smooth="yes"/>
      <point x="362.1" y="891.9"/>
      <point x="488.0" y="778.7"/>
    </contour>
    <contour>
      <point x="1764.9" y="-45.0" type="curve" smooth="yes"/>
      <point x="1828.0" y="-45.0"/>
      <point x="1885.1" y="-34.1"/>
      <point x="1936.3" y="-10.5" type="curve" smooth="yes"/>
      <point x="2078.2" y="53.6"/>
      <point x="2178.6" y="194.4"/>
      <point x="2178.6" y="397.4" type="curve" smooth="yes"/>
      <point x="2178.6" y="658.5"/>
      <point x="2034.8" y="835.8"/>
      <point x="1771.8" y="835.8" type="curve" smooth="yes"/>
      <point x="1708.7" y="835.8"/>
      <point x="1650.6" y="824.9"/>
      <point x="1599.4" y="801.3" type="curve" smooth="yes"/>
      <point x="1456.5" y="737.2"/>
      <point x="1358.0" y="595.5"/>
      <point x="1358.0" y="391.5" type="curve" smooth="yes"/>
      <point x="1358.0" y="329.5"/>
      <point x="1366.9" y="272.3"/>
      <point x="1385.6" y="220.0" type="curve" smooth="yes"/>
      <point x="1438.8" y="66.4"/>
      <point x="1561.9" y="-45.0"/>
    </contour>
    <contour>
      <point x="695.0" y="909.7" type="curve" smooth="yes"/>
      <point x="523.6" y="909.7"/>
      <point x="449.7" y="1046.6"/>
      <point x="449.7" y="1218.0" type="curve" smooth="yes"/>
      <point x="449.7" y="1387.5"/>
      <point x="524.6" y="1529.4"/>
      <point x="696.0" y="1529.4" type="curve" smooth="yes"/>
      <point x="736.4" y="1529.4"/>
      <point x="773.8" y="1521.5"/>
      <point x="804.3" y="1505.7" type="curve" smooth="yes"/>
      <point x="892.1" y="1458.4"/>
      <point x="938.3" y="1357.9"/>
      <point x="938.3" y="1222.0" type="curve" smooth="yes"/>
      <point x="938.3" y="1053.5"/>
      <point x="863.5" y="909.7"/>
    </contour>
    <contour>
      <point x="1767.9" y="85.1" type="curve" smooth="yes"/>
      <point x="1726.5" y="85.1"/>
      <point x="1689.1" y="93.0"/>
      <point x="1659.5" y="109.7" type="curve" smooth="yes"/>
      <point x="1569.9" y="157.0"/>
      <point x="1524.5" y="256.5"/>
      <point x="1524.5" y="391.4" type="curve" smooth="yes"/>
      <point x="1524.5" y="560.9"/>
      <point x="1599.4" y="705.7"/>
      <point x="1770.8" y="705.7" type="curve" smooth="yes"/>
      <point x="1939.3" y="705.7"/>
      <point x="2011.2" y="568.8"/>
      <point x="2011.2" y="398.4" type="curve" smooth="yes"/>
      <point x="2011.2" y="229.9"/>
      <point x="1938.3" y="85.1"/>
    </contour>
    <contour>
      <point x="597.5" y="-20.3" type="line"/>
      <point x="775.8" y="-20.3" type="line"/>
      <point x="1822.1" y="1646.6" type="line"/>
      <point x="1643.7" y="1646.6" type="line"/>
    </contour>
  </outline>
</glyph>
<glyph name="quotesingle" format="1">
  <advance width="933.8"/>
  <unicode hex="0027"/>
  <outline>
    <contour>
      <point x="338.0" y="1666.7" type="line"/>
      <point x="488.7" y="1666.7" type="line"/>
      <point x="488.7" y="2200.7" type="line"/>
      <point x="296.6" y="2200.7" type="line"/>
    </contour>
  </outline>
</glyph>
<glyph name="plus" format="1">
  <advance width="1675.5"/>
  <unicode hex="002B"/>
  <outline>
    <contour>
      <point x="749.6" y="118.3" type="line"/>
      <point x="922.0" y="118.3" type="line"/>
      <point x="922.0" y="612.0" type="line"/>
      <point x="1406.1" y="612.0" type="line"/>
      <point x="1406.1" y="773.5" type="line"/>
      <point x="924.0" y="773.5" type="line"/>
      <point x="924.0" y="1267.6" type="line"/>
      <point x="752.6" y="1267.6" type="line"/>
      <point x="752.6" y="773.5" type="line"/>
      <point x="269.4" y="773.5" type="line"/>
      <point x="269.4" y="612.0" type="line"/>
      <point x="749.6" y="612.0" type="line"/>
    </contour>
  </outline>
</glyph>
<glyph name="hyphen" format="1">
  <advance width="1291.4"/>
  <unicode hex="002D"/>
  <outline>
    <contour>
      <point x="240.6" y="655.0" type="line"/>
      <point x="1050.8" y="655.0" type="line"/>
      <point x="1050.8" y="820.5" type="line"/>
      <point x="240.6" y="820.5" type="line"/>
    </contour>
  </outline>
</glyph>
<glyph name="slash" format="1">
  <advance width="1122.5"/>
  <unicode hex="002F"/>
  <outline>
    <contour>
      <point x="152.5" y="0.0" type="line"/>
      <point x="332.6" y="0.0" type="line"/>
      <point x="970.0" y="1448.8" type="line"/>
      <point x="785.9" y="1448.8" type="line"/>
    </contour>
  </outline>
</glyph>
<glyph name="five" format="1">
  <advance width="1291.2"/>
  <unicode hex="0035"/>
  <outline>
    <contour>
      <point x="187.8" y="159.5" type="line"/>
      <point x="296.2" y="29.8"/>
      <point x="455.4" y="-31.0"/>
      <point x="619.4" y="-31.0" type="curve" smooth="yes"/>
      <point x="887.5" y="-28.3"/>
      <point x="1126.8" y="146.0"/>
      <point x="1126.8" y="434.6" type="curve" smooth="yes"/>
      <point x="1126.8" y="766.0"/>
      <point x="908.8" y="926.6"/>
      <point x="692.4" y="926.6" type="curve" smooth="yes"/>
      <point x="556.7" y="926.6"/>
      <point x="500.3" y="881.3"/>
      <point x="454.0" y="845.8" type="curve"/>
      <point x="468.9" y="1215.6" type="line"/>
      <point x="1017.4" y="1215.6" type="line"/>
      <point x="1017.4" y="1409.2" type="line"/>
      <point x="243.8" y="1409.2" type="line"/>
      <point x="243.8" y="647.8" type="line"/>
      <point x="418.9" y="645.4" type="line"/>
      <point x="488.6" y="717.1"/>
      <point x="562.0" y="735.5"/>
      <point x="644.7" y="735.5" type="curve" smooth="yes"/>
      <point x="775.2" y="733.7"/>
      <point x="891.3" y="639.8"/>
      <point x="891.3" y="458.3" type="curve" smooth="yes"/>
      <point x="891.3" y="306.0"/>
      <point x="810.6" y="180.3"/>
      <point x="613.8" y="180.3" type="curve" smooth="yes"/>
      <point x="507.9" y="181.2"/>
      <point x="388.9" y="230.5"/>
      <point x="276.9" y="346.6" type="curve"/>
    </contour>
  </outline>
</glyph>
<glyph name="seven" format="1">
  <advance width="1291.2"/>
  <unicode hex="0037"/>
  <outline>
    <contour>
      <point x="332.1" y="0.0" type="line"/>
      <point x="601.8" y="0.0" type="line"/>
      <point x="1073.5" y="1245.3" type="line"/>
      <point x="1073.5" y="1417.3" type="line"/>
      <point x="162.0" y="1417.3" type="line"/>
      <point x="162.0" y="1223.7" type="line"/>
      <point x="790.6" y="1223.7" type="line"/>
    </contour>
  </outline>
</glyph>
<glyph name="colon" format="1">
  <advance width="909.9"/>
  <unicode hex="003A"/>
  <outline>
    <contour>
      <point x="267.9" y="-19.1" type="line"/>
      <point x="519.1" y="-19.1" type="line"/>
      <point x="519.1" y="224.2" type="line"/>
      <point x="267.9" y="224.2" type="line"/>
    </contour>
    <contour>
      <point x="267.9" y="966.1" type="line"/>
      <point x="519.1" y="966.1" type="line"/>
      <point x="519.1" y="1209.4" type="line"/>
      <point x="267.9" y="1209.4" type="line"/>
    </contour>
  </outline>
</glyph>
<glyph name="greater" format="1">
  <advance width="1454.4"/>
  <unicode hex="003E"/>
  <outline>
    <contour>
      <point x="275.3" y="97.6" type="line"/>
      <point x="1281.7" y="542.8" type="line"/>
      <point x="1281.7" y="631.8" type="line"/>
      <point x="281.2" y="1114.0" type="line"/>
      <point x="281.2" y="962.0" type="line"/>
      <point x="1061.6" y="592.8" type="line"/>
      <point x="275.3" y="250.7" type="line"/>
    </contour>
  </outline>
</glyph>
<glyph name="A" format="1">
  <advance width="1514.1"/>
  <unicode hex="0041"/>
  <outline>
    <contour>
      <point x="69.7" y="0.0" type="line"/>
      <point x="334.9" y="0.0" type="line"/>
      <point x="462.9" y="341.0" type="line"/>
      <point x="1044.6" y="341.0" type="line"/>
      <point x="1169.2" y="0.0" type="line"/>
      <point x="1444.8" y="0.0" type="line"/>
      <point x="878.5" y="1448.8" type="line"/>
      <point x="641.3" y="1448.8" type="line"/>
    </contour>
    <contour>
      <point x="534.9" y="532.8" type="line"/>
      <point x="627.2" y="777.6" type="line"/>
      <point x="753.7" y="1138.7" type="line"/>
      <point x="884.5" y="777.7" type="line"/>
      <point x="974.4" y="532.8" type="line"/>
    </contour>
  </outline>
</glyph>
<glyph name="B" format="1">
  <advance width="1471.6"/>
  <unicode hex="0042"/>
  <outline>
    <contour>
      <point x="188.4" y="0.0" type="line"/>
      <point x="736.5" y="0.0" type="line" smooth="yes"/>
      <point x="1143.8" y="0.0"/>
      <point x="1324.5" y="125.7"/>
      <point x="1324.5" y="418.3" type="curve" smooth="yes"/>
      <point x="1324.5" y="632.2"/>
      <point x="1232.0" y="739.0"/>
      <point x="1021.4" y="774.4" type="curve"/>
      <point x="1189.5" y="823.0"/>
      <point x="1260.9" y="919.8"/>
      <point x="1260.9" y="1100.5" type="curve" smooth="yes"/>
      <point x="1260.9" y="1346.2"/>
      <point x="1082.4" y="1448.8"/>
      <point x="670.5" y="1448.8" type="curve" smooth="yes"/>
      <point x="188.4" y="1448.8" type="line"/>
    </contour>
    <contour>
      <point x="438.7" y="195.7" type="line"/>
      <point x="438.7" y="659.7" type="line"/>
      <point x="711.5" y="659.7" type="line" smooth="yes"/>
      <point x="973.7" y="659.7"/>
      <point x="1084.9" y="591.2"/>
      <point x="1084.9" y="430.3" type="curve" smooth="yes"/>
      <point x="1084.9" y="263.3"/>
      <point x="978.7" y="195.7"/>
      <point x="729.6" y="195.7" type="curve" smooth="yes"/>
    </contour>
    <contour>
      <point x="438.7" y="839.4" type="line"/>
      <point x="438.7" y="1254.0" type="line"/>
      <point x="670.5" y="1254.0" type="line" smooth="yes"/>
      <point x="917.4" y="1254.0"/>
      <point x="1021.4" y="1199.8"/>
      <point x="1021.4" y="1063.5" type="curve" smooth="yes"/>
      <point x="1021.4" y="906.1"/>
      <point x="920.3" y="839.4"/>
      <point x="681.5" y="839.4" type="curve" smooth="yes"/>
    </contour>
  </outline>
</glyph>
<glyph name="D" format="1">
  <advance width="1622.9"/>
  <unicode hex="0044"/>
  <outline>
    <contour>
      <point x="445.0" y="194.8" type="line"/>
      <point x="445.0" y="1254.0" type="line"/>
      <point x="606.3" y="1254.0" type="line" smooth="yes"/>
      <point x="1033.8" y="1254.0"/>
      <point x="1224.5" y="1096.2"/>
      <point x="1224.5" y="733.6" type="curve" smooth="yes"/>
      <point x="1224.5" y="365.3"/>
      <point x="1047.8" y="194.8"/>
      <point x="652.9" y="194.8" type="curve" smooth="yes"/>
    </contour>
    <contour>
      <point x="188.4" y="0.0" type="line"/>
      <point x="636.9" y="0.0" type="line" smooth="yes"/>
      <point x="1220.9" y="0.0"/>
      <point x="1483.9" y="223.0"/>
      <point x="1483.9" y="736.6" type="curve" smooth="yes"/>
      <point x="1483.9" y="1239.7"/>
      <point x="1201.7" y="1448.8"/>
      <point x="574.5" y="1448.8" type="curve" smooth="yes"/>
      <point x="188.4" y="1448.8" type="line"/>
    </contour>
  </outline>
</glyph>
<glyph name="E" format="1">
  <advance width="1256.3"/>
  <unicode hex="0045"/>
  <outline>
    <contour>
      <point x="188.4" y="0.0" type="line"/>
      <point x="1141.4" y="0.0" type="line"/>
      <point x="1141.4" y="194.8" type="line"/>
      <point x="438.7" y="194.8" type="line"/>
      <point x="438.7" y="645.0" type="line"/>
      <point x="1053.4" y="645.0" type="line"/>
      <point x="1053.4" y="833.5" type="line"/>
      <point x="438.7" y="833.5" type="line"/>
      <point x="438.7" y="1254.0" type="line"/>
      <point x="1091.4" y="1254.0" type="line"/>
      <point x="1091.4" y="1448.8" type="line"/>
      <point x="188.4" y="1448.8" type="line"/>
    </contour>
  </outline>
</glyph>
<glyph name="F" format="1">
  <advance width="1195.7"/>
  <unicode hex="0046"/>
  <outline>
    <contour>
      <point x="188.4" y="0.0" type="line"/>
      <point x="438.7" y="0.0" type="line"/>
      <point x="438.7" y="664.3" type="line"/>
      <point x="1038.8" y="664.3" type="line"/>
      <point x="1038.8" y="852.8" type="line"/>
      <point x="438.7" y="852.8" type="line"/>
      <point x="438.7" y="1254.0" type="line"/>
      <point x="1071.9" y="1254.0" type="line"/>
      <point x="1071.9" y="1448.8" type="line"/>
      <point x="188.4" y="1448.8" type="line"/>
    </contour>
  </outline>
</glyph>
<glyph name="G" format="1">
  <advance width="1609.2"/>
  <unicode hex="0047"/>
  <outline>
    <contour>
      <point x="916.1" y="-22.0" type="curve" smooth="yes"/>
      <point x="1104.3" y="-22.0"/>
      <point x="1311.9" y="15.7"/>
      <point x="1445.2" y="78.3" type="curve"/>
      <point x="1445.2" y="771.4" type="line"/>
      <point x="885.2" y="771.4" type="line"/>
      <point x="885.2" y="596.3" type="line"/>
      <point x="1208.4" y="596.3" type="line"/>
      <point x="1208.4" y="240.1" type="line"/>
      <point x="1136.4" y="210.4"/>
      <point x="1035.8" y="193.0"/>
      <point x="929.2" y="193.0" type="curve" smooth="yes"/>
      <point x="606.8" y="193.0"/>
      <point x="404.3" y="386.3"/>
      <point x="404.3" y="702.3" type="curve" smooth="yes"/>
      <point x="404.3" y="1036.6"/>
      <point x="609.3" y="1256.3"/>
      <point x="947.4" y="1256.3" type="curve" smooth="yes"/>
      <point x="1071.7" y="1256.3"/>
      <point x="1226.5" y="1214.0"/>
      <point x="1340.1" y="1150.3" type="curve"/>
      <point x="1421.1" y="1332.1" type="line"/>
      <point x="1289.8" y="1417.5"/>
      <point x="1109.3" y="1471.3"/>
      <point x="938.8" y="1471.3" type="curve" smooth="yes"/>
      <point x="457.7" y="1471.3"/>
      <point x="140.8" y="1159.6"/>
      <point x="140.8" y="688.4" type="curve" smooth="yes"/>
      <point x="140.8" y="254.3"/>
      <point x="443.0" y="-22.0"/>
    </contour>
  </outline>
</glyph>
<glyph name="I" format="1">
  <advance width="629.5"/>
  <unicode hex="0049"/>
  <outline>
    <contour>
      <point x="189.6" y="0.0" type="line"/>
      <point x="439.9" y="0.0" type="line"/>
      <point x="439.9" y="1448.8" type="line"/>
      <point x="189.6" y="1448.8" type="line"/>
    </contour>
  </outline>
</glyph>
<glyph name="J" format="1">
  <advance width="1167.9"/>
  <unicode hex="004A"/>
  <outline>
    <contour>
      <point x="77.9" y="-114.0" type="line"/>
      <point x="182.6" y="-176.5"/>
      <point x="297.2" y="-209.7"/>
      <point x="404.7" y="-209.7" type="curve" smooth="yes"/>
      <point x="640.5" y="-209.7"/>
      <point x="842.3" y="-52.4"/>
      <point x="842.3" y="297.3" type="curve" smooth="yes"/>
      <point x="842.3" y="1254.6" type="line"/>
      <point x="1112.5" y="1254.6" type="line"/>
      <point x="1112.5" y="1448.8" type="line"/>
      <point x="208.1" y="1448.8" type="line"/>
      <point x="208.1" y="1254.6" type="line"/>
      <point x="592.0" y="1254.6" type="line"/>
      <point x="592.0" y="296.2" type="line" smooth="yes"/>
      <point x="592.0" y="105.7"/>
      <point x="514.1" y="15.9"/>
      <point x="383.1" y="15.9" type="curve" smooth="yes"/>
      <point x="317.8" y="15.9"/>
      <point x="237.8" y="38.7"/>
      <point x="147.9" y="83.2" type="curve"/>
    </contour>
  </outline>
</glyph>
<glyph name="K" format="1">
  <advance width="1338.7"/>
  <unicode hex="004B"/>
  <outline>
    <contour>
      <point x="188.4" y="0.0" type="line"/>
      <point x="438.7" y="0.0" type="line"/>
      <point x="438.7" y="685.4" type="line"/>
      <point x="1015.0" y="0.0" type="line"/>
      <point x="1334.7" y="0.0" type="line"/>
      <point x="684.9" y="772.1" type="line"/>
      <point x="1300.1" y="1448.8" type="line"/>
      <point x="999.0" y="1448.8" type="line"/>
      <point x="438.7" y="819.4" type="line"/>
      <point x="438.7" y="1448.8" type="line"/>
      <point x="188.4" y="1448.8" type="line"/>
    </contour>
  </outline>
</glyph>
<glyph name="M" format="1">
  <advance width="1997.1"/>
  <unicode hex="004D"/>
  <outline>
    <contour>
      <point x="188.4" y="0.0" type="line"/>
      <point x="439.4" y="0.0" type="line"/>
      <point x="439.4" y="1111.4" type="line"/>
      <point x="541.8" y="898.3" type="line"/>
      <point x="938.6" y="228.1" type="line"/>
      <point x="1063.7" y="228.1" type="line"/>
      <point x="1462.8" y="886.3" type="line"/>
      <point x="1566.9" y="1094.4" type="line"/>
      <point x="1566.9" y="0.0" type="line"/>
      <point x="1808.7" y="0.0" type="line"/>
      <point x="1808.7" y="1448.8" type="line"/>
      <point x="1520.9" y="1448.8" type="line"/>
      <point x="1087.7" y="719.7" type="line"/>
      <point x="1003.6" y="554.1" type="line"/>
      <point x="917.6" y="717.6" type="line"/>
      <point x="488.4" y="1448.8" type="line"/>
      <point x="188.4" y="1448.8" type="line"/>
    </contour>
  </outline>
</glyph>
<glyph name="P" format="1">
  <advance width="1336.2"/>
  <unicode hex="0050"/>
  <outline>
    <contour>
      <point x="188.4" y="0.0" type="line"/>
      <point x="445.0" y="0.0" type="line"/>
      <point x="445.0" y="539.3" type="line"/>
      <point x="661.8" y="539.3" type="line" smooth="yes"/>
      <point x="1087.3" y="539.3"/>
      <point x="1273.6" y="680.9"/>
      <point x="1273.6" y="1004.7" type="curve" smooth="yes"/>
      <point x="1273.6" y="1316.0"/>
      <point x="1084.1" y="1448.8"/>
      <point x="636.8" y="1448.8" type="curve" smooth="yes"/>
      <point x="188.4" y="1448.8" type="line"/>
    </contour>
    <contour>
      <point x="445.0" y="736.9" type="line"/>
      <point x="445.0" y="1254.0" type="line"/>
      <point x="660.8" y="1254.0" type="line" smooth="yes"/>
      <point x="908.6" y="1254.0"/>
      <point x="1014.0" y="1181.7"/>
      <point x="1014.0" y="1002.7" type="curve" smooth="yes"/>
      <point x="1014.0" y="816.7"/>
      <point x="912.9" y="736.9"/>
      <point x="680.8" y="736.9" type="curve" smooth="yes"/>
    </contour>
  </outline>
</glyph>
<glyph name="R" format="1">
  <advance width="1389.3"/>
  <unicode hex="0052"/>
  <outline>
    <contour>
      <point x="188.4" y="0.0" type="line"/>
      <point x="438.7" y="0.0" type="line"/>
      <point x="438.7" y="639.4" type="line"/>
      <point x="643.9" y="639.4" type="line" smooth="yes"/>
      <point x="774.2" y="639.4"/>
      <point x="846.7" y="570.3"/>
      <point x="897.9" y="417.2" type="curve" smooth="yes"/>
      <point x="1041.0" y="0.0" type="line"/>
      <point x="1309.1" y="0.0" type="line"/>
      <point x="1164.1" y="408.2" type="line" smooth="yes"/>
      <point x="1104.7" y="578.4"/>
      <point x="1056.1" y="661.0"/>
      <point x="936.3" y="700.6" type="curve"/>
      <point x="1159.9" y="758.9"/>
      <point x="1239.1" y="876.9"/>
      <point x="1239.1" y="1069.5" type="curve" smooth="yes"/>
      <point x="1239.1" y="1342.5"/>
      <point x="1050.4" y="1448.8"/>
      <point x="647.9" y="1448.8" type="curve" smooth="yes"/>
      <point x="188.4" y="1448.8" type="line"/>
    </contour>
    <contour>
      <point x="438.7" y="818.8" type="line"/>
      <point x="438.7" y="1254.0" type="line"/>
      <point x="677.9" y="1254.0" type="line" smooth="yes"/>
      <point x="894.4" y="1254.0"/>
      <point x="995.0" y="1218.7"/>
      <point x="995.0" y="1054.4" type="curve" smooth="yes"/>
      <point x="995.0" y="884.2"/>
      <point x="890.0" y="818.8"/>
      <point x="667.8" y="818.8" type="curve" smooth="yes"/>
    </contour>
  </outline>
</glyph>
<glyph name="S" format="1">
  <advance width="1289.92207584"/>
  <unicode hex="0053"/>
  <outline>
    <contour>
      <point x="694.013017685" y="-22.0" type="curve" smooth="yes"/>
      <point x="1029.01301769" y="-22.0"/>
      <point x="1174.01301769" y="164.2"/>
      <point x="1178.51301769" y="391.4" type="curve" smooth="yes"/>
      <point x="1183.91301768" y="635.6"/>
      <point x="1077.51301769" y="736.9"/>
      <point x="708.713017685" y="854.8" type="curve" smooth="yes"/>
      <point x="431.513017685" y="943.7"/>
      <point x="405.613017685" y="983.9"/>
      <point x="406.213017685" y="1087.6" type="curve" smooth="yes"/>
      <point x="406.813017685" y="1189.1"/>
      <point x="470.113017685" y="1256.6"/>
      <point x="682.413017685" y="1256.6" type="curve" smooth="yes"/>
      <point x="802.813017685" y="1256.6"/>
      <point x="935.713017685" y="1225.0"/>
      <point x="1060.31301768" y="1157.7" type="curve"/>
      <point x="1128.51301769" y="1346.4" type="line"/>
      <point x="994.213017685" y="1429.0"/>
      <point x="823.713017685" y="1471.3"/>
      <point x="664.213017685" y="1471.3" type="curve" smooth="yes"/>
      <point x="294.813017685" y="1471.3"/>
      <point x="151.613017685" y="1282.3"/>
      <point x="151.213017685" y="1064.0" type="curve" smooth="yes"/>
      <point x="150.813017685" y="887.6"/>
      <point x="227.913017685" y="751.0"/>
      <point x="563.613017685" y="654.8" type="curve" smooth="yes"/>
      <point x="920.313017685" y="550.4"/>
      <point x="947.713017685" y="487.4"/>
      <point x="947.713017685" y="386.6" type="curve" smooth="yes"/>
      <point x="947.713017685" y="274.1"/>
      <point x="865.213017685" y="192.3"/>
      <point x="683.513017685" y="192.3" type="curve" smooth="yes"/>
      <point x="550.113017685" y="192.3"/>
      <point x="386.313017685" y="228.4"/>
      <point x="214.813017685" y="326.8" type="curve"/>
      <point x="158.913017685" y="121.2" type="line"/>
      <point x="297.413017685" y="33.2"/>
      <point x="509.713017685" y="-22.0"/>
    </contour>
  </outline>
</glyph>
<glyph name="V" format="1">
  <advance width="1388.2"/>
  <unicode hex="0056"/>
  <outline>
    <contour>
      <point x="563.0" y="0.1" type="line"/>
      <point x="831.8" y="0.1" type="line"/>
      <point x="1384.3" y="1448.8" type="line"/>
      <point x="1110.4" y="1448.8" type="line"/>
      <point x="799.2" y="598.5" type="line"/>
      <point x="698.1" y="309.1" type="line"/>
      <point x="590.0" y="599.5" type="line"/>
      <point x="270.3" y="1448.8" type="line"/>
      <point x="4.0" y="1448.8" type="line"/>
    </contour>
  </outline>
</glyph>
<glyph name="W" format="1">
  <advance width="2208.4"/>
  <unicode hex="0057"/>
  <outline>
    <contour>
      <point x="1496.9" y="0.0" type="line"/>
      <point x="1717.0" y="0.0" type="line"/>
      <point x="2165.2" y="1448.8" type="line"/>
      <point x="1923.1" y="1448.8" type="line"/>
      <point x="1673.9" y="587.5" type="line"/>
      <point x="1604.9" y="366.4" type="line"/>
      <point x="1527.4" y="583.5" type="line"/>
      <point x="1200.8" y="1448.8" type="line"/>
      <point x="1021.6" y="1448.8" type="line"/>
      <point x="692.9" y="587.5" type="line"/>
      <point x="610.5" y="365.4" type="line"/>
      <point x="546.4" y="587.5" type="line"/>
      <point x="291.3" y="1448.8" type="line"/>
      <point x="43.2" y="1448.8" type="line"/>
      <point x="492.3" y="0.1" type="line"/>
      <point x="712.5" y="0.1" type="line"/>
      <point x="1105.7" y="1070.6" type="line"/>
    </contour>
  </outline>
</glyph>
<glyph name="X" format="1">
  <advance width="1384.1"/>
  <unicode hex="0058"/>
  <outline>
    <contour>
      <point x="-5.2" y="0.0" type="line"/>
      <point x="261.8" y="0.0" type="line"/>
      <point x="692.1" y="567.2" type="line"/>
      <point x="1109.2" y="0.0" type="line"/>
      <point x="1373.2" y="0.0" type="line"/>
      <point x="850.4" y="719.5" type="line"/>
      <point x="1387.5" y="1448.8" type="line"/>
      <point x="1122.2" y="1448.8" type="line"/>
      <point x="716.9" y="899.9" type="line"/>
      <point x="319.2" y="1448.8" type="line"/>
      <point x="42.8" y="1448.8" type="line"/>
      <point x="558.8" y="747.3" type="line"/>
    </contour>
  </outline>
</glyph>
<glyph name="Y" format="1">
  <advance width="1288.4"/>
  <unicode hex="0059"/>
  <outline>
    <contour>
      <point x="505.5" y="0.0" type="line"/>
      <point x="764.8" y="0.0" type="line"/>
      <point x="764.8" y="582.3" type="line"/>
      <point x="1279.0" y="1448.8" type="line"/>
      <point x="1026.8" y="1448.8" type="line"/>
      <point x="637.7" y="781.9" type="line"/>
      <point x="271.5" y="1448.8" type="line"/>
      <point x="9.4" y="1448.8" type="line"/>
      <point x="505.5" y="580.2" type="line"/>
    </contour>
  </outline>
</glyph>
<glyph name="bracketleft" format="1">
  <advance width="880.0"/>
  <unicode hex="005B"/>
  <outline>
    <contour>
      <point x="241.4" y="-218.5" type="line"/>
      <point x="683.0" y="-218.5" type="line"/>
      <point x="683.0" y="-90.2" type="line"/>
      <point x="490.8" y="-90.2" type="line"/>
      <point x="490.8" y="1355.1" type="line"/>
      <point x="682.9" y="1355.1" type="line"/>
      <point x="682.9" y="1484.3" type="line"/>
      <point x="241.4" y="1484.3" type="line"/>
    </contour>
  </outline>
</glyph>
<glyph name="bracketright" format="1">
  <advance width="1057.3"/>
  <unicode hex="005D"/>
  <outline>
    <contour>
      <point x="158.1" y="-234.7" type="line"/>
      <point x="599.5" y="-234.7" type="line"/>
      <point x="599.5" y="1468.1" type="line"/>
      <point x="158.1" y="1468.1" type="line"/>
      <point x="159.1" y="1338.9" type="line"/>
      <point x="350.9" y="1338.9" type="line"/>
      <point x="350.9" y="-106.4" type="line"/>
      <point x="158.1" y="-106.4" type="line"/>
    </contour>
  </outline>
</glyph>
<glyph name="asciicircum" format="1">
  <advance width="1276.1"/>
  <unicode hex="005E"/>
  <outline>
    <contour>
      <point x="103.9" y="568.0" type="line"/>
      <point x="304.9" y="568.0" type="line"/>
      <point x="631.2" y="1184.4" type="line"/>
      <point x="971.3" y="568.0" type="line"/>
      <point x="1170.4" y="568.0" type="line"/>
      <point x="684.1" y="1446.4" type="line"/>
      <point x="583.1" y="1446.4" type="line"/>
    </contour>
  </outline>
</glyph>
<glyph name="underscore" format="1">
  <advance width="980.0"/>
  <unicode hex="005F"/>
  <outline>
    <contour>
      <point x="-9.5" y="-460.2" type="line"/>
      <point x="989.0" y="-460.2" type="line"/>
      <point x="989.0" y="-332.2" type="line"/>
      <point x="-9.5" y="-332.2" type="line"/>
    </contour>
  </outline>
</glyph>
<glyph name="a" format="1">
  <advance width="1277.9"/>
  <unicode hex="0061"/>
  <outline>
    <contour>
      <point x="531.2" y="-22.0" type="curve" smooth="yes"/>
      <point x="673.0" y="-22.0"/>
      <point x="815.8" y="54.8"/>
      <point x="871.2" y="160.6" type="curve"/>
      <point x="897.8" y="64.0"/>
      <point x="1014.2" y="-7.6"/>
      <point x="1158.1" y="-7.6" type="curve"/>
      <point x="1232.6" y="192.1" type="line"/>
      <point x="1140.5" y="192.1"/>
      <point x="1068.9" y="249.3"/>
      <point x="1068.9" y="328.3" type="curve" smooth="yes"/>
      <point x="1068.9" y="911.6" type="line"/>
      <point x="974.5" y="968.1"/>
      <point x="811.7" y="1019.2"/>
      <point x="674.1" y="1019.2" type="curve" smooth="yes"/>
      <point x="332.6" y="1019.2"/>
      <point x="93.6" y="774.3"/>
      <point x="93.6" y="426.3" type="curve" smooth="yes"/>
      <point x="93.6" y="163.8"/>
      <point x="269.5" y="-22.0"/>
    </contour>
    <contour>
      <point x="550.8" y="168.2" type="curve" smooth="yes"/>
      <point x="423.8" y="168.2"/>
      <point x="333.8" y="278.7"/>
      <point x="333.8" y="435.4" type="curve" smooth="yes"/>
      <point x="333.8" y="665.4"/>
      <point x="469.6" y="828.7"/>
      <point x="662.1" y="828.7" type="curve" smooth="yes"/>
      <point x="721.9" y="828.7"/>
      <point x="793.6" y="814.7"/>
      <point x="834.7" y="792.8" type="curve"/>
      <point x="834.7" y="422.4" type="line" smooth="yes"/>
      <point x="834.7" y="274.5"/>
      <point x="718.1" y="168.2"/>
    </contour>
  </outline>
</glyph>
<glyph name="b" format="1">
  <advance width="1310.8"/>
  <unicode hex="0062"/>
  <outline>
    <contour>
      <point x="689.4" y="-22.0" type="curve" smooth="yes"/>
      <point x="1005.5" y="-22.0"/>
      <point x="1215.4" y="199.7"/>
      <point x="1215.4" y="529.7" type="curve" smooth="yes"/>
      <point x="1215.4" y="825.2"/>
      <point x="1034.0" y="1018.9"/>
      <point x="768.8" y="1018.9" type="curve" smooth="yes"/>
      <point x="620.8" y="1018.9"/>
      <point x="472.7" y="950.7"/>
      <point x="400.7" y="844.7" type="curve"/>
      <point x="400.7" y="1547.5" type="line"/>
      <point x="164.6" y="1518.4" type="line"/>
      <point x="164.6" y="69.2" type="line"/>
      <point x="165.5" y="69.2"/>
      <point x="379.8" y="-22.0"/>
    </contour>
    <contour>
      <point x="674.4" y="168.2" type="curve" smooth="yes"/>
      <point x="515.9" y="168.2"/>
      <point x="400.7" y="201.0"/>
      <point x="400.7" y="201.0" type="curve"/>
      <point x="400.7" y="614.9" type="line"/>
      <point x="478.7" y="743.6"/>
      <point x="608.5" y="828.4"/>
      <point x="722.9" y="828.4" type="curve" smooth="yes"/>
      <point x="872.7" y="828.4"/>
      <point x="974.3" y="707.9"/>
      <point x="974.3" y="526.6" type="curve" smooth="yes"/>
      <point x="974.3" y="314.5"/>
      <point x="857.9" y="168.2"/>
    </contour>
  </outline>
</glyph>
<glyph name="c" format="1">
  <advance width="1095.8"/>
  <unicode hex="0063"/>
  <outline>
    <contour>
      <point x="634.1" y="-22.1" type="curve" smooth="yes"/>
      <point x="766.9" y="-22.1"/>
      <point x="913.8" y="17.5"/>
      <point x="1025.7" y="104.8" type="curve"/>
      <point x="949.8" y="284.8" type="line"/>
      <point x="878.5" y="222.1"/>
      <point x="773.5" y="168.5"/>
      <point x="652.0" y="168.5" type="curve" smooth="yes"/>
      <point x="448.3" y="168.5"/>
      <point x="332.1" y="320.2"/>
      <point x="332.1" y="500.8" type="curve" smooth="yes"/>
      <point x="332.1" y="681.4"/>
      <point x="458.7" y="824.1"/>
      <point x="653.4" y="824.1" type="curve" smooth="yes"/>
      <point x="735.8" y="824.1"/>
      <point x="829.2" y="796.3"/>
      <point x="925.8" y="733.3" type="curve"/>
      <point x="995.7" y="907.4" type="line"/>
      <point x="890.6" y="987.8"/>
      <point x="752.1" y="1019.4"/>
      <point x="635.6" y="1019.4" type="curve" smooth="yes"/>
      <point x="335.3" y="1019.4"/>
      <point x="91.0" y="801.6"/>
      <point x="91.0" y="499.4" type="curve" smooth="yes"/>
      <point x="91.0" y="230.8"/>
      <point x="282.9" y="-22.1"/>
    </contour>
  </outline>
</glyph>
<glyph name="d" format="1">
  <advance width="1308.8"/>
  <unicode hex="0064"/>
  <outline>
    <contour>
      <point x="581.7" y="-22.0" type="curve" smooth="yes"/>
      <point x="734.6" y="-22.0"/>
      <point x="862.6" y="45.7"/>
      <point x="916.3" y="148.2" type="curve"/>
      <point x="925.7" y="102.0"/>
      <point x="954.5" y="38.3"/>
      <point x="988.9" y="-13.9" type="curve"/>
      <point x="1213.9" y="27.1" type="line"/>
      <point x="1167.1" y="94.0"/>
      <point x="1136.7" y="233.1"/>
      <point x="1136.7" y="389.1" type="curve" smooth="yes"/>
      <point x="1136.7" y="1542.2" type="line"/>
      <point x="900.6" y="1528.5" type="line"/>
      <point x="900.6" y="927.8" type="line"/>
      <point x="825.7" y="984.9"/>
      <point x="721.8" y="1019.2"/>
      <point x="616.8" y="1019.2" type="curve" smooth="yes"/>
      <point x="301.5" y="1019.2"/>
      <point x="95.4" y="805.5"/>
      <point x="95.4" y="487.5" type="curve" smooth="yes"/>
      <point x="95.4" y="182.4"/>
      <point x="290.6" y="-22.0"/>
    </contour>
    <contour>
      <point x="602.4" y="168.2" type="curve" smooth="yes"/>
      <point x="443.2" y="168.2"/>
      <point x="336.5" y="298.3"/>
      <point x="336.5" y="493.5" type="curve" smooth="yes"/>
      <point x="336.5" y="693.3"/>
      <point x="453.5" y="828.7"/>
      <point x="635.4" y="828.7" type="curve" smooth="yes"/>
      <point x="740.9" y="828.7"/>
      <point x="850.0" y="784.6"/>
      <point x="900.7" y="717.0" type="curve"/>
      <point x="900.7" y="519.6" type="line" smooth="yes"/>
      <point x="900.7" y="311.3"/>
      <point x="782.0" y="168.2"/>
    </contour>
  </outline>
</glyph>
<glyph name="k" format="1">
  <advance width="1206.0"/>
  <unicode hex="006B"/>
  <outline>
    <contour>
      <point x="1163.6" y="-20.2" type="curve"/>
      <point x="1205.3" y="177.1" type="line"/>
      <point x="1090.6" y="159.1"/>
      <point x="1034.6" y="179.3"/>
      <point x="950.2" y="296.9" type="curve" smooth="yes"/>
      <point x="784.8" y="527.6" type="line"/>
      <point x="1080.0" y="942.7" type="line"/>
      <point x="856.3" y="990.9" type="line"/>
      <point x="397.0" y="379.3" type="line"/>
      <point x="397.0" y="1532.3" type="line"/>
      <point x="162.8" y="1511.3" type="line"/>
      <point x="162.8" y="96.0" type="line" smooth="yes"/>
      <point x="162.8" y="-28.7"/>
      <point x="303.3" y="-66.9"/>
      <point x="381.6" y="32.4" type="curve"/>
      <point x="649.6" y="359.7" type="line"/>
      <point x="801.6" y="144.0" type="line" smooth="yes"/>
      <point x="918.5" y="-21.1"/>
      <point x="999.7" y="-20.2"/>
    </contour>
  </outline>
</glyph>
<glyph name="m" format="1">
  <advance width="1969.1"/>
  <unicode hex="006D"/>
  <outline>
    <contour>
      <point x="1886.7" y="-1.9" type="curve"/>
      <point x="1909.9" y="184.7" type="line"/>
      <point x="1785.8" y="168.2"/>
      <point x="1775.6" y="228.4"/>
      <point x="1775.7" y="355.3" type="curve" smooth="yes"/>
      <point x="1775.7" y="571.3" type="line" smooth="yes"/>
      <point x="1776.0" y="845.4"/>
      <point x="1618.7" y="1019.2"/>
      <point x="1377.7" y="1019.2" type="curve" smooth="yes"/>
      <point x="1271.6" y="1019.2"/>
      <point x="1138.6" y="986.1"/>
      <point x="1028.1" y="849.7" type="curve"/>
      <point x="960.4" y="952.5"/>
      <point x="850.0" y="1019.2"/>
      <point x="711.1" y="1019.2" type="curve" smooth="yes"/>
      <point x="598.5" y="1019.2"/>
      <point x="469.1" y="968.2"/>
      <point x="390.9" y="870.8" type="curve"/>
      <point x="378.2" y="921.5"/>
      <point x="347.3" y="968.5"/>
      <point x="317.6" y="996.3" type="curve"/>
      <point x="87.4" y="908.0" type="line"/>
      <point x="147.7" y="834.9"/>
      <point x="189.8" y="721.4"/>
      <point x="189.8" y="618.9" type="curve" smooth="yes"/>
      <point x="189.8" y="0.0" type="line"/>
      <point x="430.3" y="0.0" type="line"/>
      <point x="430.3" y="569.5" type="line"/>
      <point x="431.8" y="733.8"/>
      <point x="532.1" y="814.3"/>
      <point x="669.9" y="814.3" type="curve" smooth="yes"/>
      <point x="793.3" y="814.3"/>
      <point x="873.9" y="730.2"/>
      <point x="873.9" y="550.3" type="curve" smooth="yes"/>
      <point x="873.9" y="0.0" type="line"/>
      <point x="1108.2" y="0.0" type="line"/>
      <point x="1108.2" y="568.0" type="line"/>
      <point x="1108.2" y="727.5"/>
      <point x="1218.8" y="814.3"/>
      <point x="1337.5" y="814.3" type="curve" smooth="yes"/>
      <point x="1478.9" y="814.3"/>
      <point x="1541.4" y="712.2"/>
      <point x="1541.4" y="550.3" type="curve" smooth="yes"/>
      <point x="1541.4" y="267.1" type="line" smooth="yes"/>
      <point x="1541.2" y="64.4"/>
      <point x="1625.5" y="-49.9"/>
    </contour>
  </outline>
</glyph>
<glyph name="n" format="1">
  <advance width="1305.0"/>
  <unicode hex="006E"/>
  <outline>
    <contour>
      <point x="1245.8" y="173.0" type="line"/>
      <point x="1231.9" y="171.2"/>
      <point x="1220.7" y="170.3"/>
      <point x="1209.5" y="170.3" type="curve" smooth="yes"/>
      <point x="1120.7" y="170.3"/>
      <point x="1107.5" y="227.5"/>
      <point x="1107.5" y="342.5" type="curve" smooth="yes"/>
      <point x="1107.5" y="573.2" type="line" smooth="yes"/>
      <point x="1107.5" y="847.3"/>
      <point x="963.5" y="1019.2"/>
      <point x="722.5" y="1019.2" type="curve" smooth="yes"/>
      <point x="591.9" y="1019.2"/>
      <point x="467.4" y="968.1"/>
      <point x="393.0" y="878.0" type="curve"/>
      <point x="376.7" y="918.8"/>
      <point x="349.3" y="968.6"/>
      <point x="319.5" y="996.3" type="curve"/>
      <point x="89.5" y="908.0" type="line"/>
      <point x="149.2" y="835.6"/>
      <point x="191.9" y="721.4"/>
      <point x="191.9" y="618.9" type="curve" smooth="yes"/>
      <point x="191.9" y="0.0" type="line"/>
      <point x="432.4" y="0.0" type="line"/>
      <point x="432.4" y="569.5" type="line"/>
      <point x="433.9" y="733.8"/>
      <point x="551.0" y="814.3"/>
      <point x="670.8" y="814.3" type="curve" smooth="yes"/>
      <point x="794.2" y="814.3"/>
      <point x="873.3" y="713.6"/>
      <point x="873.3" y="551.7" type="curve" smooth="yes"/>
      <point x="873.3" y="265.6" type="line" smooth="yes"/>
      <point x="873.3" y="92.7"/>
      <point x="934.5" y="-17.3"/>
      <point x="1116.0" y="-17.3" type="curve" smooth="yes"/>
      <point x="1147.6" y="-17.3"/>
      <point x="1182.8" y="-13.7"/>
      <point x="1222.6" y="-6.4" type="curve"/>
    </contour>
  </outline>
</glyph>
<glyph name="p" format="1">
  <advance width="1324.1"/>
  <unicode hex="0070"/>
  <outline>
    <contour>
      <point x="173.0" y="-492.1" type="line"/>
      <point x="413.5" y="-490.3" type="line"/>
      <point x="415.3" y="69.8" type="line"/>
      <point x="492.2" y="15.6"/>
      <point x="617.8" y="-22.0"/>
      <point x="721.9" y="-22.0" type="curve" smooth="yes"/>
      <point x="1020.4" y="-22.0"/>
      <point x="1228.5" y="196.4"/>
      <point x="1228.5" y="510.8" type="curve" smooth="yes"/>
      <point x="1228.5" y="825.2"/>
      <point x="1026.1" y="1019.2"/>
      <point x="745.4" y="1019.2" type="curve" smooth="yes"/>
      <point x="616.6" y="1019.2"/>
      <point x="463.8" y="953.0"/>
      <point x="395.3" y="825.6" type="curve"/>
      <point x="383.7" y="896.5"/>
      <point x="347.5" y="954.7"/>
      <point x="300.9" y="997.2" type="curve"/>
      <point x="71.0" y="910.2" type="line"/>
      <point x="111.2" y="858.8"/>
      <point x="173.0" y="810.4"/>
      <point x="173.0" y="620.8" type="curve" smooth="yes"/>
    </contour>
    <contour>
      <point x="688.9" y="168.2" type="curve" smooth="yes"/>
      <point x="572.9" y="168.2"/>
      <point x="459.0" y="213.4"/>
      <point x="413.4" y="280.6" type="curve"/>
      <point x="413.4" y="418.7" type="line" smooth="yes"/>
      <point x="413.4" y="659.0"/>
      <point x="540.9" y="828.7"/>
      <point x="721.1" y="828.7" type="curve" smooth="yes"/>
      <point x="890.0" y="828.7"/>
      <point x="987.4" y="701.9"/>
      <point x="987.4" y="504.8" type="curve" smooth="yes"/>
      <point x="987.4" y="304.7"/>
      <point x="866.6" y="168.2"/>
    </contour>
  </outline>
</glyph>
<glyph name="v" format="1">
  <advance width="1104.3"/>
  <unicode hex="0076"/>
  <outline>
    <contour>
      <point x="460.3" y="0.0" type="line"/>
      <point x="658.9" y="0.0" type="line"/>
      <point x="1079.3" y="999.0" type="line"/>
      <point x="837.5" y="999.0" type="line"/>
      <point x="612.8" y="469.2" type="line"/>
      <point x="600.8" y="441.3"/>
      <point x="588.7" y="408.0"/>
      <point x="557.7" y="308.8" type="curve"/>
      <point x="542.6" y="361.0"/>
      <point x="522.3" y="423.2"/>
      <point x="501.5" y="469.2" type="curve" smooth="yes"/>
      <point x="271.8" y="999.0" type="line"/>
      <point x="25.0" y="999.0" type="line"/>
    </contour>
  </outline>
</glyph>
<glyph name="w" format="1">
  <advance width="1670.0"/>
  <unicode hex="0077"/>
  <outline>
    <contour>
      <point x="409.9" y="0.0" type="line"/>
      <point x="608.8" y="0.0" type="line"/>
      <point x="838.6" y="606.9" type="line"/>
      <point x="1075.5" y="0.0" type="line"/>
      <point x="1274.2" y="0.0" type="line"/>
      <point x="1653.0" y="999.0" type="line"/>
      <point x="1412.9" y="999.0" type="line"/>
      <point x="1226.0" y="464.3" type="line"/>
      <point x="1214.0" y="435.9"/>
      <point x="1201.4" y="403.5"/>
      <point x="1174.0" y="311.4" type="curve"/>
      <point x="1158.6" y="361.2"/>
      <point x="1135.2" y="420.0"/>
      <point x="1119.8" y="464.2" type="curve" smooth="yes"/>
      <point x="956.4" y="908.1" type="line"/>
      <point x="912.022888911" y="1027.91819993"/>
      <point x="758.448322859" y="1038.61467963"/>
      <point x="712.1" y="903.6" type="curve"/>
      <point x="560.5" y="463.2" type="line"/>
      <point x="548.5" y="435.3"/>
      <point x="535.9" y="403.0"/>
      <point x="507.9" y="311.1" type="curve"/>
      <point x="493.4" y="361.0"/>
      <point x="470.0" y="419.7"/>
      <point x="454.6" y="464.0" type="curve" smooth="yes"/>
      <point x="263.2" y="999.0" type="line"/>
      <point x="17.0" y="999.0" type="line"/>
    </contour>
  </outline>
</glyph>
<glyph name="x" format="1">
  <advance width="1140.1"/>
  <unicode hex="0078"/>
  <outline>
    <contour>
      <point x="22.8" y="0.0" type="line"/>
      <point x="281.2" y="0.0" type="line"/>
      <point x="558.2" y="351.3" type="line"/>
      <point x="824.5" y="0.0" type="line"/>
      <point x="1117.3" y="0.0" type="line"/>
      <point x="728.1" y="505.4" type="line"/>
      <point x="1100.7" y="999.0" type="line"/>
      <point x="831.7" y="999.0" type="line"/>
      <point x="595.8" y="675.5" type="line"/>
      <point x="348.3" y="999.0" type="line"/>
      <point x="65.2" y="999.0" type="line"/>
      <point x="430.0" y="518.5" type="line"/>
    </contour>
  </outline>
</glyph>
<glyph name="y" format="1">
  <advance width="1276.9"/>
  <unicode hex="0079"/>
  <outline>
    <contour>
      <point x="557.6" y="-537.2" type="curve" smooth="yes"/>
      <point x="851.2" y="-537.2"/>
      <point x="1102.5" y="-391.5"/>
      <point x="1103.4" y="-7.7" type="curve" smooth="yes"/>
      <point x="1103.4" y="999.0" type="line"/>
      <point x="863.8" y="999.0" type="line"/>
      <point x="863.8" y="468.4" type="line" smooth="yes"/>
      <point x="863.8" y="266.1"/>
      <point x="779.8" y="164.6"/>
      <point x="605.8" y="164.6" type="curve" smooth="yes"/>
      <point x="480.3" y="164.6"/>
      <point x="401.6" y="239.2"/>
      <point x="404.8" y="379.4" type="curve" smooth="yes"/>
      <point x="409.0" y="578.8" type="line" smooth="yes"/>
      <point x="415.3" y="889.7"/>
      <point x="370.7" y="999.0"/>
      <point x="370.7" y="999.0" type="curve"/>
      <point x="131.0" y="972.1" type="line"/>
      <point x="131.0" y="972.1"/>
      <point x="177.4" y="849.7"/>
      <point x="170.2" y="565.8" type="curve" smooth="yes"/>
      <point x="165.1" y="356.0" type="line" smooth="yes"/>
      <point x="158.9" y="125.0"/>
      <point x="319.3" y="-22.0"/>
      <point x="557.4" y="-22.0" type="curve" smooth="yes"/>
      <point x="684.1" y="-22.0"/>
      <point x="798.5" y="19.9"/>
      <point x="869.2" y="119.9" type="curve"/>
      <point x="866.5" y="-44.0" type="line" smooth="yes"/>
      <point x="866.5" y="-277.9"/>
      <point x="680.6" y="-337.2"/>
      <point x="537.3" y="-337.2" type="curve" smooth="yes"/>
      <point x="442.9" y="-337.2"/>
      <point x="319.1" y="-305.3"/>
      <point x="231.6" y="-261.1" type="curve"/>
      <point x="188.3" y="-456.4" type="line"/>
      <point x="302.8" y="-508.7"/>
      <point x="434.1" y="-537.2"/>
    </contour>
  </outline>
</glyph>
<glyph name="z" format="1">
  <advance width="1036.6"/>
  <unicode hex="007A"/>
  <outline>
    <contour>
      <point x="119.6" y="0.0" type="line"/>
      <point x="949.7" y="0.0" type="line"/>
      <point x="949.7" y="179.9" type="line"/>
      <point x="413.0" y="179.9" type="line"/>
      <point x="928.2" y="852.6" type="line"/>
      <point x="928.2" y="999.0" type="line"/>
      <point x="135.7" y="999.0" type="line"/>
      <point x="135.7" y="831.6" type="line"/>
      <point x="640.4" y="831.6" type="line"/>
      <point x="119.6" y="148.4" type="line"/>
    </contour>
  </outline>
</glyph>
<glyph name="bar" format="1">
  <advance width="842.9"/>
  <unicode hex="007C"/>
  <outline>
    <contour>
      <point x="330.0" y="-417.2" type="line"/>
      <point x="512.2" y="-417.2" type="line"/>
      <point x="512.2" y="1527.9" type="line"/>
      <point x="330.0" y="1527.9" type="line"/>
    </contour>
  </outline>
</glyph>
<glyph name="asciitilde" format="1">
  <advance width="1703.7"/>
  <unicode hex="007E"/>
  <outline>
    <contour>
      <point x="367.0" y="648.7" type="line"/>
      <point x="391.6" y="753.1"/>
      <point x="458.7" y="863.5"/>
      <point x="586.7" y="863.5" type="curve" smooth="yes"/>
      <point x="610.4" y="863.5"/>
      <point x="637.9" y="858.6"/>
      <point x="667.5" y="849.7" type="curve" smooth="yes"/>
      <point x="767.0" y="818.2"/>
      <point x="860.6" y="766.0"/>
      <point x="952.2" y="726.5" type="curve" smooth="yes"/>
      <point x="1000.5" y="704.8"/>
      <point x="1060.6" y="678.2"/>
      <point x="1120.7" y="678.2" type="curve" smooth="yes"/>
      <point x="1167.0" y="678.2"/>
      <point x="1208.4" y="685.1"/>
      <point x="1246.8" y="700.9" type="curve" smooth="yes"/>
      <point x="1365.0" y="751.1"/>
      <point x="1435.9" y="857.6"/>
      <point x="1468.4" y="994.5" type="curve"/>
      <point x="1323.6" y="1039.8" type="line"/>
      <point x="1301.9" y="945.2"/>
      <point x="1237.9" y="833.9"/>
      <point x="1122.6" y="833.9" type="curve" smooth="yes"/>
      <point x="1103.9" y="833.9"/>
      <point x="1082.2" y="838.8"/>
      <point x="1056.6" y="847.7" type="curve" smooth="yes"/>
      <point x="963.0" y="882.2"/>
      <point x="870.4" y="933.5"/>
      <point x="776.8" y="970.9" type="curve" smooth="yes"/>
      <point x="719.7" y="992.6"/>
      <point x="653.7" y="1019.1"/>
      <point x="583.7" y="1019.1" type="curve" smooth="yes"/>
      <point x="534.5" y="1019.1"/>
      <point x="491.1" y="1011.2"/>
      <point x="451.7" y="993.5" type="curve" smooth="yes"/>
      <point x="339.4" y="945.2"/>
      <point x="261.6" y="842.8"/>
      <point x="234.0" y="711.8" type="curve"/>
    </contour>
  </outline>
</glyph>
<glyph name="currency" format="1">
  <advance width="1254.2"/>
  <unicode hex="00A4"/>
  <outline>
    <contour>
      <point x="146.2" y="328.2" type="line"/>
      <point x="332.5" y="522.3" type="line"/>
      <point x="411.3" y="458.3"/>
      <point x="511.7" y="419.8"/>
      <point x="619.1" y="419.8" type="curve" smooth="yes"/>
      <point x="734.4" y="419.8"/>
      <point x="839.9" y="462.1"/>
      <point x="919.7" y="532.1" type="curve"/>
      <point x="1114.6" y="345.9" type="line"/>
      <point x="1157.0" y="387.3" type="line"/>
      <point x="962.9" y="574.5" type="line"/>
      <point x="1028.9" y="650.3"/>
      <point x="1068.4" y="747.8"/>
      <point x="1071.3" y="856.2" type="curve" smooth="yes"/>
      <point x="1074.2" y="973.5"/>
      <point x="1030.0" y="1081.8"/>
      <point x="956.1" y="1163.6" type="curve"/>
      <point x="1140.2" y="1353.7" type="line"/>
      <point x="1093.0" y="1398.1" type="line"/>
      <point x="910.7" y="1208.0" type="line"/>
      <point x="834.8" y="1272.1"/>
      <point x="737.3" y="1312.4"/>
      <point x="630.9" y="1315.3" type="curve" smooth="yes"/>
      <point x="514.6" y="1318.2"/>
      <point x="403.3" y="1272.9"/>
      <point x="319.6" y="1198.1" type="curve"/>
      <point x="131.5" y="1379.4" type="line"/>
      <point x="87.1" y="1335.0" type="line"/>
      <point x="275.3" y="1152.8" type="line"/>
      <point x="208.3" y="1074.9"/>
      <point x="166.0" y="975.4"/>
      <point x="166.0" y="868.0" type="curve" smooth="yes"/>
      <point x="166.0" y="750.7"/>
      <point x="213.3" y="642.5"/>
      <point x="289.1" y="562.7" type="curve"/>
      <point x="104.8" y="371.5" type="line"/>
    </contour>
    <contour>
      <point x="616.2" y="508.5" type="curve" smooth="yes"/>
      <point x="421.1" y="508.5"/>
      <point x="269.3" y="668.1"/>
      <point x="269.3" y="865.0" type="curve" smooth="yes"/>
      <point x="269.3" y="1060.1"/>
      <point x="430.0" y="1223.7"/>
      <point x="626.0" y="1218.8" type="curve" smooth="yes"/>
      <point x="821.0" y="1214.8"/>
      <point x="968.9" y="1051.3"/>
      <point x="964.9" y="856.2" type="curve" smooth="yes"/>
      <point x="960.0" y="660.2"/>
      <point x="812.2" y="508.5"/>
    </contour>
  </outline>
</glyph>
<glyph name="brokenbar" format="1">
  <advance width="842.0"/>
  <unicode hex="00A6"/>
  <outline>
    <contour>
      <point x="283.2" y="-827.6" type="line"/>
      <point x="465.4" y="-827.6" type="line"/>
      <point x="465.4" y="195.0" type="line"/>
      <point x="283.2" y="195.0" type="line"/>
    </contour>
    <contour>
      <point x="283.2" y="524.0" type="line"/>
      <point x="465.4" y="524.0" type="line"/>
      <point x="465.4" y="1527.9" type="line"/>
      <point x="283.2" y="1527.9" type="line"/>
    </contour>
  </outline>
</glyph>
<glyph name="section" format="1">
  <advance width="1848.5"/>
  <unicode hex="00A7"/>
  <outline>
    <contour>
      <point x="654.8" y="-80.4" type="curve" smooth="yes"/>
      <point x="785.8" y="-80.4"/>
      <point x="902.1" y="-45.9"/>
      <point x="982.8" y="9.3" type="curve" smooth="yes"/>
      <point x="1058.7" y="62.5"/>
      <point x="1125.6" y="143.3"/>
      <point x="1125.6" y="265.5" type="curve" smooth="yes"/>
      <point x="1125.6" y="411.3"/>
      <point x="1035.0" y="480.2"/>
      <point x="936.5" y="530.4" type="curve"/>
      <point x="1033.0" y="588.6"/>
      <point x="1151.3" y="676.2"/>
      <point x="1151.3" y="827.0" type="curve" smooth="yes"/>
      <point x="1151.3" y="867.4"/>
      <point x="1141.4" y="904.8"/>
      <point x="1122.7" y="937.3" type="curve" smooth="yes"/>
      <point x="1037.0" y="1082.1"/>
      <point x="834.0" y="1133.3"/>
      <point x="683.3" y="1215.1" type="curve" smooth="yes"/>
      <point x="616.3" y="1252.5"/>
      <point x="552.3" y="1293.9"/>
      <point x="552.3" y="1387.5" type="curve" smooth="yes"/>
      <point x="552.3" y="1511.6"/>
      <point x="675.4" y="1543.2"/>
      <point x="800.6" y="1543.2" type="curve" smooth="yes"/>
      <point x="898.1" y="1543.2"/>
      <point x="992.7" y="1515.6"/>
      <point x="1062.6" y="1483.1" type="curve"/>
      <point x="1059.7" y="1654.5" type="line"/>
      <point x="973.0" y="1681.1"/>
      <point x="902.1" y="1701.8"/>
      <point x="795.6" y="1701.8" type="curve" smooth="yes"/>
      <point x="563.2" y="1701.8"/>
      <point x="353.3" y="1613.1"/>
      <point x="353.3" y="1382.6" type="curve" smooth="yes"/>
      <point x="353.3" y="1234.9"/>
      <point x="432.1" y="1162.0"/>
      <point x="530.6" y="1102.8" type="curve"/>
      <point x="429.1" y="1051.6"/>
      <point x="311.9" y="967.9"/>
      <point x="311.9" y="818.1" type="curve" smooth="yes"/>
      <point x="311.9" y="780.7"/>
      <point x="318.8" y="746.2"/>
      <point x="331.6" y="714.7" type="curve" smooth="yes"/>
      <point x="375.9" y="607.3"/>
      <point x="476.4" y="546.2"/>
      <point x="584.8" y="499.9" type="curve" smooth="yes"/>
      <point x="682.3" y="458.5" type="line" smooth="yes"/>
      <point x="720.7" y="442.7"/>
      <point x="755.2" y="427.0"/>
      <point x="785.7" y="413.2" type="curve" smooth="yes"/>
      <point x="851.8" y="381.7"/>
      <point x="924.7" y="347.2"/>
      <point x="924.7" y="255.6" type="curve" smooth="yes"/>
      <point x="924.7" y="230.0"/>
      <point x="919.7" y="207.3"/>
      <point x="906.9" y="185.6" type="curve" smooth="yes"/>
      <point x="865.5" y="112.7"/>
      <point x="767.0" y="78.2"/>
      <point x="649.8" y="78.2" type="curve" smooth="yes"/>
      <point x="529.6" y="78.2"/>
      <point x="436.1" y="108.8"/>
      <point x="340.5" y="151.2" type="curve"/>
      <point x="343.4" y="-20.3" type="line"/>
      <point x="431.1" y="-55.8"/>
      <point x="536.6" y="-80.4"/>
    </contour>
    <contour>
      <point x="780.9" y="607.3" type="curve"/>
      <point x="741.5" y="623.1"/>
      <point x="706.0" y="638.8"/>
      <point x="673.5" y="653.6" type="curve" smooth="yes"/>
      <point x="599.6" y="687.1"/>
      <point x="515.9" y="730.4"/>
      <point x="515.9" y="831.9" type="curve" smooth="yes"/>
      <point x="515.9" y="936.3"/>
      <point x="600.6" y="992.5"/>
      <point x="670.5" y="1029.9" type="curve"/>
      <point x="764.0" y="978.7"/>
      <point x="945.4" y="953.1"/>
      <point x="945.4" y="811.2" type="curve" smooth="yes"/>
      <point x="945.4" y="787.6"/>
      <point x="941.4" y="767.8"/>
      <point x="931.5" y="747.2" type="curve" smooth="yes"/>
      <point x="899.1" y="686.1"/>
      <point x="838.0" y="643.7"/>
    </contour>
  </outline>
</glyph>
<glyph name="dieresis" format="1">
  <advance width="1251.5"/>
  <unicode hex="00A8"/>
  <outline>
    <contour>
      <point x="282.1" y="1186.6" type="line"/>
      <point x="535.2" y="1186.6" type="line"/>
      <point x="535.2" y="1437.8" type="line"/>
      <point x="282.1" y="1437.8" type="line"/>
    </contour>
    <contour>
      <point x="715.8" y="1186.6" type="line"/>
      <point x="968.9" y="1186.6" type="line"/>
      <point x="968.9" y="1437.8" type="line"/>
      <point x="715.8" y="1437.8" type="line"/>
    </contour>
  </outline>
</glyph>
<glyph name="copyright" format="1">
  <advance width="2147.6"/>
  <unicode hex="00A9"/>
  <outline>
    <contour>
      <point x="1108.3" y="195.9" type="curve" smooth="yes"/>
      <point x="1247.2" y="195.9"/>
      <point x="1366.4" y="230.4"/>
      <point x="1465.9" y="300.3" type="curve"/>
      <point x="1420.6" y="440.2" type="line"/>
      <point x="1350.7" y="383.1"/>
      <point x="1262.9" y="347.6"/>
      <point x="1145.7" y="347.6" type="curve" smooth="yes"/>
      <point x="1076.8" y="347.6"/>
      <point x="1016.7" y="359.4"/>
      <point x="964.5" y="380.1" type="curve" smooth="yes"/>
      <point x="824.6" y="437.3"/>
      <point x="730.0" y="563.3"/>
      <point x="730.0" y="756.4" type="curve" smooth="yes"/>
      <point x="730.0" y="811.6"/>
      <point x="739.8" y="863.8"/>
      <point x="757.5" y="912.1" type="curve" smooth="yes"/>
      <point x="808.7" y="1052.0"/>
      <point x="926.0" y="1158.3"/>
      <point x="1113.2" y="1158.3" type="curve" smooth="yes"/>
      <point x="1237.3" y="1158.3"/>
      <point x="1340.8" y="1120.9"/>
      <point x="1425.5" y="1048.0" type="curve"/>
      <point x="1461.0" y="1186.9" type="line"/>
      <point x="1367.4" y="1266.7"/>
      <point x="1254.1" y="1305.2"/>
      <point x="1121.1" y="1305.2" type="curve" smooth="yes"/>
      <point x="1035.4" y="1305.2"/>
      <point x="958.5" y="1291.4"/>
      <point x="888.6" y="1263.8" type="curve" smooth="yes"/>
      <point x="695.5" y="1187.9"/>
      <point x="552.7" y="1017.5"/>
      <point x="552.7" y="751.5" type="curve" smooth="yes"/>
      <point x="552.7" y="674.6"/>
      <point x="567.4" y="601.8"/>
      <point x="595.0" y="534.8" type="curve" smooth="yes"/>
      <point x="671.9" y="344.7"/>
      <point x="845.3" y="195.9"/>
    </contour>
    <contour>
      <point x="1077.8" y="-129.2" type="curve" smooth="yes"/>
      <point x="1365.5" y="-129.2"/>
      <point x="1580.2" y="-14.9"/>
      <point x="1732.9" y="129.9" type="curve" smooth="yes"/>
      <point x="1880.7" y="269.8"/>
      <point x="2006.8" y="468.8"/>
      <point x="2006.8" y="746.6" type="curve" smooth="yes"/>
      <point x="2006.8" y="826.4"/>
      <point x="1995.0" y="903.2"/>
      <point x="1973.3" y="977.1" type="curve" smooth="yes"/>
      <point x="1926.0" y="1133.7"/>
      <point x="1840.3" y="1261.8"/>
      <point x="1732.9" y="1363.3" type="curve" smooth="yes"/>
      <point x="1579.2" y="1508.1"/>
      <point x="1363.4" y="1624.3"/>
      <point x="1071.8" y="1624.3" type="curve" smooth="yes"/>
      <point x="784.1" y="1624.3"/>
      <point x="570.3" y="1510.1"/>
      <point x="415.7" y="1365.3" type="curve" smooth="yes"/>
      <point x="267.9" y="1225.4"/>
      <point x="139.9" y="1026.4"/>
      <point x="139.9" y="747.6" type="curve" smooth="yes"/>
      <point x="139.9" y="667.8"/>
      <point x="151.7" y="590.9"/>
      <point x="173.4" y="517.0" type="curve" smooth="yes"/>
      <point x="220.7" y="361.3"/>
      <point x="305.4" y="231.4"/>
      <point x="413.8" y="129.9" type="curve" smooth="yes"/>
      <point x="568.4" y="-14.9"/>
      <point x="786.2" y="-129.2"/>
    </contour>
    <contour>
      <point x="1077.7" y="6.7" type="curve" smooth="yes"/>
      <point x="837.3" y="6.7"/>
      <point x="644.2" y="97.4"/>
      <point x="514.2" y="220.5" type="curve" smooth="yes"/>
      <point x="388.1" y="338.8"/>
      <point x="286.7" y="517.1"/>
      <point x="286.7" y="749.5" type="curve" smooth="yes"/>
      <point x="286.7" y="979.1"/>
      <point x="388.1" y="1157.4"/>
      <point x="514.2" y="1275.6" type="curve" smooth="yes"/>
      <point x="643.2" y="1395.8"/>
      <point x="833.5" y="1488.4"/>
      <point x="1072.8" y="1488.4" type="curve" smooth="yes"/>
      <point x="1312.2" y="1488.4"/>
      <point x="1505.3" y="1395.7"/>
      <point x="1634.3" y="1273.6" type="curve" smooth="yes"/>
      <point x="1759.5" y="1155.3"/>
      <point x="1860.0" y="977.1"/>
      <point x="1860.0" y="746.5" type="curve" smooth="yes"/>
      <point x="1860.0" y="516.0"/>
      <point x="1758.6" y="338.7"/>
      <point x="1634.4" y="220.5" type="curve" smooth="yes"/>
      <point x="1506.3" y="98.4"/>
      <point x="1317.1" y="6.7"/>
    </contour>
  </outline>
</glyph>
<glyph name="logicalnot" format="1">
  <advance width="2456.1"/>
  <unicode hex="00AC"/>
  <outline>
    <contour>
      <point x="1376.1" y="400.9" type="line"/>
      <point x="1549.5" y="400.9" type="line"/>
      <point x="1549.5" y="1049.1" type="line"/>
      <point x="337.7" y="1049.1" type="line"/>
      <point x="337.7" y="887.6" type="line"/>
      <point x="1376.1" y="887.6" type="line"/>
    </contour>
  </outline>
</glyph>
<glyph name="degree" format="1">
  <advance width="1421.8"/>
  <unicode hex="00B0"/>
  <outline>
    <contour>
      <point x="529.2" y="1575.8" type="curve" smooth="yes"/>
      <point x="498.6" y="1575.8"/>
      <point x="468.1" y="1580.8"/>
      <point x="440.6" y="1590.7" type="curve" smooth="yes"/>
      <point x="367.7" y="1619.3"/>
      <point x="305.5" y="1682.3"/>
      <point x="305.5" y="1782.8" type="curve" smooth="yes"/>
      <point x="305.5" y="1811.4"/>
      <point x="312.4" y="1839.9"/>
      <point x="323.3" y="1865.5" type="curve" smooth="yes"/>
      <point x="356.8" y="1935.4"/>
      <point x="429.6" y="1987.7"/>
      <point x="529.2" y="1987.7" type="curve" smooth="yes"/>
      <point x="559.7" y="1987.7"/>
      <point x="587.3" y="1981.8"/>
      <point x="614.9" y="1971.9" type="curve" smooth="yes"/>
      <point x="687.8" y="1944.3"/>
      <point x="753.8" y="1882.3"/>
      <point x="753.8" y="1782.8" type="curve" smooth="yes"/>
      <point x="753.8" y="1754.2"/>
      <point x="747.9" y="1726.6"/>
      <point x="736.1" y="1701.0" type="curve" smooth="yes"/>
      <point x="703.6" y="1631.0"/>
      <point x="630.7" y="1575.8"/>
    </contour>
    <contour>
      <point x="529.2" y="1440.9" type="curve" smooth="yes"/>
      <point x="579.4" y="1440.9"/>
      <point x="624.8" y="1448.8"/>
      <point x="670.1" y="1467.5" type="curve" smooth="yes"/>
      <point x="788.3" y="1514.8"/>
      <point x="898.6" y="1619.3"/>
      <point x="898.6" y="1781.8" type="curve" smooth="yes"/>
      <point x="898.6" y="1829.1"/>
      <point x="889.7" y="1872.4"/>
      <point x="870.0" y="1914.7" type="curve" smooth="yes"/>
      <point x="815.8" y="2028.1"/>
      <point x="695.7" y="2121.7"/>
      <point x="529.2" y="2121.7" type="curve" smooth="yes"/>
      <point x="479.9" y="2121.7"/>
      <point x="431.7" y="2112.8"/>
      <point x="386.4" y="2096.0" type="curve" smooth="yes"/>
      <point x="268.2" y="2048.7"/>
      <point x="160.7" y="1942.4"/>
      <point x="160.7" y="1781.8" type="curve" smooth="yes"/>
      <point x="160.7" y="1734.5"/>
      <point x="169.6" y="1691.2"/>
      <point x="189.3" y="1649.8" type="curve" smooth="yes"/>
      <point x="243.5" y="1535.5"/>
      <point x="363.7" y="1440.9"/>
    </contour>
  </outline>
</glyph>
<glyph name="uni00B3" format="1">
  <advance width="2004.5"/>
  <unicode hex="00B3"/>
  <outline>
    <contour>
      <point x="680.8" y="987.4" type="curve" smooth="yes"/>
      <point x="727.1" y="987.4"/>
      <point x="772.4" y="994.3"/>
      <point x="813.8" y="1007.1" type="curve" smooth="yes"/>
      <point x="927.1" y="1042.6"/>
      <point x="1026.6" y="1129.2"/>
      <point x="1026.6" y="1275.0" type="curve" smooth="yes"/>
      <point x="1026.6" y="1393.3"/>
      <point x="964.5" y="1465.2"/>
      <point x="877.9" y="1503.6" type="curve"/>
      <point x="949.8" y="1542.0"/>
      <point x="1002.0" y="1610.0"/>
      <point x="1002.0" y="1712.5" type="curve" smooth="yes"/>
      <point x="1002.0" y="1755.8"/>
      <point x="993.1" y="1793.2"/>
      <point x="975.4" y="1825.7" type="curve" smooth="yes"/>
      <point x="927.1" y="1915.4"/>
      <point x="825.6" y="1976.5"/>
      <point x="687.7" y="1976.5" type="curve" smooth="yes"/>
      <point x="567.5" y="1976.5"/>
      <point x="459.2" y="1922.3"/>
      <point x="396.1" y="1859.3" type="curve"/>
      <point x="463.1" y="1748.9" type="line"/>
      <point x="520.2" y="1794.3"/>
      <point x="590.2" y="1838.6"/>
      <point x="684.8" y="1838.6" type="curve" smooth="yes"/>
      <point x="778.4" y="1838.6"/>
      <point x="848.3" y="1803.1"/>
      <point x="848.3" y="1709.5" type="curve" smooth="yes"/>
      <point x="848.3" y="1593.3"/>
      <point x="737.9" y="1569.6"/>
      <point x="620.7" y="1569.6" type="curve" smooth="yes"/>
      <point x="563.6" y="1569.6" type="line"/>
      <point x="563.6" y="1432.6" type="line"/>
      <point x="593.2" y="1432.6" type="line" smooth="yes"/>
      <point x="594.1" y="1432.6"/>
      <point x="627.9" y="1432.7"/>
      <point x="628.6" y="1432.7" type="curve" smooth="yes"/>
      <point x="758.7" y="1432.7"/>
      <point x="876.9" y="1407.0"/>
      <point x="876.9" y="1278.0" type="curve" smooth="yes"/>
      <point x="876.9" y="1171.6"/>
      <point x="783.3" y="1120.4"/>
      <point x="674.9" y="1120.4" type="curve" smooth="yes"/>
      <point x="600.0" y="1120.4"/>
      <point x="530.1" y="1150.9"/>
      <point x="465.1" y="1210.1" type="curve"/>
      <point x="396.1" y="1099.7" type="line"/>
      <point x="462.1" y="1033.7"/>
      <point x="556.7" y="987.4"/>
    </contour>
  </outline>
</glyph>
<glyph name="acute" format="1">
  <advance width="1021.9"/>
  <unicode hex="00B4"/>
  <outline>
    <contour>
      <point x="294.7" y="1974.8" type="line"/>
      <point x="508.4" y="1974.8" type="line"/>
      <point x="865.0" y="2345.2" type="line"/>
      <point x="556.7" y="2345.2" type="line"/>
    </contour>
  </outline>
</glyph>
<glyph name="paragraph" format="1">
  <advance width="2044.7"/>
  <unicode hex="00B6"/>
  <outline>
    <contour>
      <point x="567.1" y="-249.7" type="line"/>
      <point x="733.5" y="-249.7" type="line"/>
      <point x="733.5" y="1456.6" type="line"/>
      <point x="973.9" y="1456.6" type="line"/>
      <point x="973.9" y="-249.7" type="line"/>
      <point x="1123.6" y="-249.7" type="line"/>
      <point x="1123.6" y="1456.6" type="line"/>
      <point x="1223.2" y="1456.6" type="line"/>
      <point x="1223.2" y="1600.4" type="line"/>
      <point x="777.8" y="1600.4" type="line" smooth="yes"/>
      <point x="472.4" y="1600.4"/>
      <point x="179.9" y="1534.4"/>
      <point x="179.9" y="1229.0" type="curve" smooth="yes"/>
      <point x="179.9" y="1169.9"/>
      <point x="190.7" y="1115.7"/>
      <point x="211.4" y="1067.4" type="curve" smooth="yes"/>
      <point x="267.5" y="936.4"/>
      <point x="387.7" y="833.9"/>
      <point x="567.1" y="831.0" type="curve"/>
    </contour>
  </outline>
</glyph>
<glyph name="periodcentered" format="1">
  <advance width="747.3"/>
  <unicode hex="00B7"/>
  <outline>
    <contour>
      <point x="128.2" y="864.9" type="line"/>
      <point x="379.4" y="864.9" type="line"/>
      <point x="379.4" y="1108.2" type="line"/>
      <point x="128.2" y="1108.2" type="line"/>
    </contour>
  </outline>
</glyph>
<glyph name="uni00B9" format="1">
  <advance width="2004.5"/>
  <unicode hex="00B9"/>
  <outline>
    <contour>
      <point x="439.2" y="1018.0" type="line"/>
      <point x="860.9" y="1018.0" type="line"/>
      <point x="860.9" y="1152.9" type="line"/>
      <point x="720.0" y="1152.9" type="line"/>
      <point x="720.0" y="1969.7" type="line"/>
      <point x="597.9" y="1952.0" type="line"/>
      <point x="537.8" y="1916.5"/>
      <point x="480.7" y="1885.9"/>
      <point x="403.8" y="1861.3" type="curve"/>
      <point x="402.8" y="1710.6" type="line"/>
      <point x="460.9" y="1732.3"/>
      <point x="527.0" y="1761.9"/>
      <point x="578.2" y="1789.4" type="curve"/>
      <point x="578.2" y="1670.2" type="line" smooth="yes"/>
      <point x="578.2" y="1610.1"/>
      <point x="579.2" y="1553.9"/>
      <point x="579.2" y="1485.0" type="curve" smooth="yes"/>
      <point x="579.2" y="1155.9" type="line"/>
      <point x="439.2" y="1155.9" type="line"/>
    </contour>
  </outline>
</glyph>
<glyph name="ordmasculine" format="1">
  <advance width="1388.3"/>
  <unicode hex="00BA"/>
  <outline>
    <contour>
      <point x="508.7" y="1292.6" type="curve" smooth="yes"/>
      <point x="576.6" y="1292.6"/>
      <point x="635.8" y="1303.4"/>
      <point x="687.0" y="1325.1" type="curve" smooth="yes"/>
      <point x="825.9" y="1383.2"/>
      <point x="923.4" y="1508.4"/>
      <point x="923.4" y="1701.5" type="curve" smooth="yes"/>
      <point x="923.4" y="1758.7"/>
      <point x="913.6" y="1812.8"/>
      <point x="896.8" y="1863.0" type="curve" smooth="yes"/>
      <point x="843.6" y="2013.7"/>
      <point x="711.6" y="2113.2"/>
      <point x="508.6" y="2113.2" type="curve" smooth="yes"/>
      <point x="441.6" y="2113.2"/>
      <point x="381.6" y="2101.4"/>
      <point x="330.3" y="2080.7" type="curve" smooth="yes"/>
      <point x="190.4" y="2022.6"/>
      <point x="89.9" y="1898.5"/>
      <point x="89.9" y="1705.4" type="curve" smooth="yes"/>
      <point x="89.9" y="1448.2"/>
      <point x="248.6" y="1292.6"/>
    </contour>
    <contour>
      <point x="508.7" y="1416.8" type="curve" smooth="yes"/>
      <point x="339.2" y="1416.8"/>
      <point x="251.5" y="1535.9"/>
      <point x="251.5" y="1704.4" type="curve" smooth="yes"/>
      <point x="251.5" y="1867.9"/>
      <point x="341.2" y="1989.1"/>
      <point x="505.7" y="1989.1" type="curve" smooth="yes"/>
      <point x="673.2" y="1989.1"/>
      <point x="763.8" y="1867.9"/>
      <point x="763.8" y="1700.4" type="curve" smooth="yes"/>
      <point x="763.8" y="1537.9"/>
      <point x="672.2" y="1416.8"/>
    </contour>
  </outline>
</glyph>
<glyph name="onequarter" format="1">
  <advance width="4137.1"/>
  <unicode hex="00BC"/>
  <outline>
    <contour>
      <point x="-567.4" y="0.0" type="line"/>
      <point x="-393.0" y="0.0" type="line"/>
      <point x="524.2" y="1460.0" type="line"/>
      <point x="524.2" y="1392.0" type="line"/>
      <point x="581.4" y="1413.7"/>
      <point x="648.4" y="1443.3"/>
      <point x="699.6" y="1469.9" type="curve"/>
      <point x="699.6" y="1351.6" type="line" smooth="yes"/>
      <point x="699.6" y="1291.5"/>
      <point x="700.6" y="1234.4"/>
      <point x="700.6" y="1165.5" type="curve" smooth="yes"/>
      <point x="700.6" y="836.4" type="line"/>
      <point x="559.7" y="836.4" type="line"/>
      <point x="559.7" y="699.4" type="line"/>
      <point x="982.3" y="699.4" type="line"/>
      <point x="982.3" y="832.5" type="line"/>
      <point x="841.4" y="832.5" type="line"/>
      <point x="841.4" y="1650.2" type="line"/>
      <point x="719.3" y="1633.4" type="line"/>
      <point x="678.8" y="1607.9"/>
      <point x="638.4" y="1586.1"/>
      <point x="592.1" y="1566.4" type="curve"/>
      <point x="651.3" y="1661.0" type="line"/>
      <point x="478.9" y="1661.0" type="line"/>
    </contour>
    <contour>
      <point x="2035.5" y="711.3" type="line"/>
      <point x="2174.4" y="711.3" type="line"/>
      <point x="2174.4" y="929.0" type="line"/>
      <point x="2314.3" y="929.0" type="line"/>
      <point x="2303.4" y="1053.1" type="line"/>
      <point x="2177.3" y="1053.1" type="line"/>
      <point x="2177.3" y="1633.4" type="line"/>
      <point x="2022.6" y="1633.4" type="line"/>
      <point x="1599.0" y="1034.4" type="line"/>
      <point x="1599.0" y="929.0" type="line"/>
      <point x="2035.5" y="929.0" type="line"/>
    </contour>
    <contour>
      <point x="1759.6" y="1053.1" type="line"/>
      <point x="2035.5" y="1439.3" type="line"/>
      <point x="2035.5" y="1053.1" type="line"/>
    </contour>
  </outline>
</glyph>
<glyph name="onehalf" format="1">
  <advance width="4630.8"/>
  <unicode hex="00BD"/>
  <outline>
    <contour>
      <point x="575.4" y="699.4" type="line"/>
      <point x="1206.0" y="699.4" type="line"/>
      <point x="1206.0" y="835.4" type="line"/>
      <point x="785.3" y="835.4" type="line"/>
      <point x="891.7" y="928.0"/>
      <point x="999.1" y="1016.7"/>
      <point x="1084.8" y="1119.2" type="curve" smooth="yes"/>
      <point x="1147.8" y="1195.0"/>
      <point x="1207.9" y="1281.7"/>
      <point x="1207.9" y="1402.9" type="curve" smooth="yes"/>
      <point x="1207.9" y="1443.3"/>
      <point x="1200.0" y="1478.8"/>
      <point x="1185.2" y="1512.2" type="curve" smooth="yes"/>
      <point x="1139.9" y="1605.8"/>
      <point x="1039.5" y="1665.9"/>
      <point x="903.5" y="1665.9" type="curve" smooth="yes"/>
      <point x="743.0" y="1665.9"/>
      <point x="634.5" y="1585.1"/>
      <point x="584.3" y="1468.9" type="curve"/>
      <point x="682.8" y="1378.3" type="line"/>
      <point x="721.2" y="1460.0"/>
      <point x="787.2" y="1530.9"/>
      <point x="897.5" y="1530.9" type="curve" smooth="yes"/>
      <point x="988.2" y="1530.9"/>
      <point x="1058.2" y="1488.5"/>
      <point x="1058.2" y="1400.9" type="curve" smooth="yes"/>
      <point x="1058.2" y="1368.4"/>
      <point x="1047.3" y="1332.9"/>
      <point x="1022.7" y="1293.5" type="curve" smooth="yes"/>
      <point x="999.0" y="1254.1"/>
      <point x="965.6" y="1210.8"/>
      <point x="923.2" y="1163.5" type="curve" smooth="yes"/>
      <point x="819.8" y="1051.1"/>
      <point x="697.6" y="938.9"/>
      <point x="575.4" y="826.6" type="curve"/>
    </contour>
    <contour>
      <point x="1936.9" y="699.4" type="line"/>
      <point x="2358.6" y="699.4" type="line"/>
      <point x="2358.6" y="832.5" type="line"/>
      <point x="2216.8" y="832.5" type="line"/>
      <point x="2216.8" y="1650.2" type="line"/>
      <point x="2095.6" y="1633.4" type="line"/>
      <point x="2035.5" y="1597.0"/>
      <point x="1980.2" y="1566.4"/>
      <point x="1902.4" y="1541.8" type="curve"/>
      <point x="1900.5" y="1392.0" type="line"/>
      <point x="1958.6" y="1413.7"/>
      <point x="2025.6" y="1443.3"/>
      <point x="2076.8" y="1469.9" type="curve"/>
      <point x="2076.8" y="1351.6" type="line" smooth="yes"/>
      <point x="2076.8" y="1291.5"/>
      <point x="2077.8" y="1234.4"/>
      <point x="2077.8" y="1165.5" type="curve" smooth="yes"/>
      <point x="2077.8" y="836.4" type="line"/>
      <point x="1936.9" y="836.4" type="line"/>
    </contour>
    <contour>
      <point x="-567.4" y="0.0" type="line"/>
      <point x="-393.0" y="0.0" type="line"/>
      <point x="651.3" y="1661.0" type="line"/>
      <point x="478.9" y="1661.0" type="line"/>
    </contour>
  </outline>
</glyph>
<glyph name="threequarters" format="1">
  <advance width="4137.1"/>
  <unicode hex="00BE"/>
  <outline>
    <contour>
      <point x="-567.4" y="0.0" type="line"/>
      <point x="-393.0" y="0.0" type="line"/>
      <point x="549.8" y="1499.5" type="line"/>
      <point x="587.2" y="1439.3" type="line"/>
      <point x="643.4" y="1484.7"/>
      <point x="714.3" y="1529.0"/>
      <point x="808.9" y="1529.0" type="curve" smooth="yes"/>
      <point x="902.5" y="1529.0"/>
      <point x="971.5" y="1493.5"/>
      <point x="971.5" y="1399.9" type="curve" smooth="yes"/>
      <point x="971.5" y="1283.7"/>
      <point x="861.1" y="1260.0"/>
      <point x="743.9" y="1260.0" type="curve" smooth="yes"/>
      <point x="686.8" y="1260.0" type="line"/>
      <point x="686.8" y="1123.0" type="line"/>
      <point x="717.3" y="1123.0" type="line" smooth="yes"/>
      <point x="718.2" y="1123.0"/>
      <point x="751.1" y="1123.1"/>
      <point x="751.8" y="1123.1" type="curve" smooth="yes"/>
      <point x="881.9" y="1123.1"/>
      <point x="1000.1" y="1097.4"/>
      <point x="1000.1" y="968.4" type="curve" smooth="yes"/>
      <point x="1000.1" y="862.0"/>
      <point x="907.4" y="810.8"/>
      <point x="799.0" y="810.8" type="curve" smooth="yes"/>
      <point x="723.2" y="810.8"/>
      <point x="653.3" y="841.3"/>
      <point x="588.3" y="900.5" type="curve"/>
      <point x="519.3" y="790.1" type="line"/>
      <point x="585.3" y="724.1"/>
      <point x="679.9" y="677.8"/>
      <point x="804.0" y="677.8" type="curve" smooth="yes"/>
      <point x="850.3" y="677.8"/>
      <point x="895.6" y="684.7"/>
      <point x="937.0" y="697.5" type="curve" smooth="yes"/>
      <point x="1050.3" y="733.0"/>
      <point x="1149.8" y="819.6"/>
      <point x="1149.8" y="965.4" type="curve" smooth="yes"/>
      <point x="1149.8" y="1083.7"/>
      <point x="1087.7" y="1155.6"/>
      <point x="1002.0" y="1194.0" type="curve"/>
      <point x="1073.0" y="1232.4"/>
      <point x="1126.1" y="1300.4"/>
      <point x="1126.1" y="1402.9" type="curve" smooth="yes"/>
      <point x="1126.1" y="1446.2"/>
      <point x="1116.3" y="1483.6"/>
      <point x="1098.6" y="1516.1" type="curve" smooth="yes"/>
      <point x="1050.3" y="1605.8"/>
      <point x="948.8" y="1666.9"/>
      <point x="810.9" y="1666.9" type="curve" smooth="yes"/>
      <point x="744.9" y="1666.9"/>
      <point x="681.8" y="1650.2"/>
      <point x="628.6" y="1624.6" type="curve"/>
      <point x="651.3" y="1661.0" type="line"/>
      <point x="478.9" y="1661.0" type="line"/>
    </contour>
    <contour>
      <point x="2035.5" y="711.3" type="line"/>
      <point x="2174.4" y="711.3" type="line"/>
      <point x="2174.4" y="929.0" type="line"/>
      <point x="2314.3" y="929.0" type="line"/>
      <point x="2303.4" y="1053.1" type="line"/>
      <point x="2177.3" y="1053.1" type="line"/>
      <point x="2177.3" y="1633.4" type="line"/>
      <point x="2022.6" y="1633.4" type="line"/>
      <point x="1599.0" y="1034.4" type="line"/>
      <point x="1599.0" y="929.0" type="line"/>
      <point x="2035.5" y="929.0" type="line"/>
    </contour>
    <contour>
      <point x="1759.6" y="1053.1" type="line"/>
      <point x="2035.5" y="1439.3" type="line"/>
      <point x="2035.5" y="1053.1" type="line"/>
    </contour>
  </outline>
</glyph>
<glyph name="multiply" format="1">
  <advance width="2456.1"/>
  <unicode hex="00D7"/>
  <outline>
    <contour>
      <point x="661.7" y="259.3" type="line"/>
      <point x="1005.5" y="602.1" type="line"/>
      <point x="1348.3" y="259.3" type="line"/>
      <point x="1468.5" y="379.5" type="line"/>
      <point x="1124.7" y="722.3" type="line"/>
      <point x="1468.5" y="1065.1" type="line"/>
      <point x="1348.3" y="1185.3" type="line"/>
      <point x="1005.5" y="841.5" type="line"/>
      <point x="661.7" y="1185.3" type="line"/>
      <point x="542.5" y="1066.1" type="line"/>
      <point x="885.3" y="722.3" type="line"/>
      <point x="542.5" y="378.5" type="line"/>
    </contour>
  </outline>
</glyph>
<glyph name="Oslash" format="1">
  <advance width="2802.4"/>
  <unicode hex="00D8"/>
  <outline>
    <contour>
      <point x="664.1" y="-278.4" type="line"/>
      <point x="749.8" y="-76.5" type="line"/>
      <point x="835.2" y="-101.2"/>
      <point x="927.6" y="-113.2"/>
      <point x="1025.3" y="-113.2" type="curve" smooth="yes"/>
      <point x="1569.5" y="-113.2"/>
      <point x="1849.5" y="303.6"/>
      <point x="1849.5" y="756.8" type="curve" smooth="yes"/>
      <point x="1849.5" y="1150.1"/>
      <point x="1686.9" y="1410.4"/>
      <point x="1435.2" y="1537.6" type="curve"/>
      <point x="1522.1" y="1742.1" type="line"/>
      <point x="1377.3" y="1792.4" type="line"/>
      <point x="1292.5" y="1593.1" type="line"/>
      <point x="1209.0" y="1616.8"/>
      <point x="1119.3" y="1627.9"/>
      <point x="1025.3" y="1627.9" type="curve" smooth="yes"/>
      <point x="477.5" y="1627.9"/>
      <point x="195.7" y="1210.2"/>
      <point x="195.7" y="756.8" type="curve" smooth="yes"/>
      <point x="195.7" y="365.4"/>
      <point x="359.2" y="105.1"/>
      <point x="611.0" y="-22.1" type="curve"/>
      <point x="524.2" y="-227.2" type="line"/>
    </contour>
    <contour>
      <point x="683.1" y="148.0" type="line"/>
      <point x="499.5" y="267.2"/>
      <point x="408.5" y="490.7"/>
      <point x="408.5" y="756.0" type="curve" smooth="yes"/>
      <point x="408.5" y="1217.1"/>
      <point x="704.1" y="1456.1"/>
      <point x="1025.3" y="1456.1" type="curve" smooth="yes"/>
      <point x="1097.8" y="1456.1"/>
      <point x="1163.8" y="1446.2"/>
      <point x="1223.3" y="1428.2" type="curve"/>
    </contour>
    <contour>
      <point x="1025.3" y="55.0" type="curve" smooth="yes"/>
      <point x="949.1" y="55.0"/>
      <point x="880.3" y="64.9"/>
      <point x="818.1" y="84.8" type="curve"/>
      <point x="1361.2" y="1363.9" type="line"/>
      <point x="1542.0" y="1244.7"/>
      <point x="1632.2" y="1021.3"/>
      <point x="1632.2" y="756.0" type="curve" smooth="yes"/>
      <point x="1632.2" y="294.0"/>
      <point x="1340.2" y="55.0"/>
    </contour>
  </outline>
</glyph>
<glyph name="germandbls" format="1">
  <advance width="2117.4"/>
  <unicode hex="00DF"/>
  <outline>
    <contour>
      <point x="1008.0" y="-38.3" type="curve" smooth="yes"/>
      <point x="1065.1" y="-38.3"/>
      <point x="1119.3" y="-28.4"/>
      <point x="1172.5" y="-8.7" type="curve" smooth="yes"/>
      <point x="1322.3" y="48.4"/>
      <point x="1448.4" y="177.5"/>
      <point x="1448.4" y="382.4" type="curve" smooth="yes"/>
      <point x="1448.4" y="458.3"/>
      <point x="1434.5" y="525.2"/>
      <point x="1402.1" y="582.4" type="curve" smooth="yes"/>
      <point x="1311.4" y="752.8"/>
      <point x="1128.2" y="852.3"/>
      <point x="927.2" y="911.4" type="curve" smooth="yes"/>
      <point x="905.5" y="918.3"/>
      <point x="893.7" y="924.3"/>
      <point x="893.7" y="931.2" type="curve" smooth="yes"/>
      <point x="893.7" y="944.9"/>
      <point x="913.4" y="952.8"/>
      <point x="924.2" y="956.8" type="curve" smooth="yes"/>
      <point x="1004.0" y="992.2"/>
      <point x="1077.9" y="1047.4"/>
      <point x="1136.1" y="1107.5" type="curve" smooth="yes"/>
      <point x="1197.1" y="1167.6"/>
      <point x="1261.2" y="1251.4"/>
      <point x="1261.2" y="1366.6" type="curve" smooth="yes"/>
      <point x="1261.2" y="1417.8"/>
      <point x="1251.3" y="1465.1"/>
      <point x="1229.7" y="1510.4" type="curve" smooth="yes"/>
      <point x="1160.8" y="1653.3"/>
      <point x="1004.0" y="1736.0"/>
      <point x="790.3" y="1736.0" type="curve" smooth="yes"/>
      <point x="710.5" y="1736.0"/>
      <point x="640.5" y="1724.2"/>
      <point x="577.5" y="1699.6" type="curve" smooth="yes"/>
      <point x="400.2" y="1629.7"/>
      <point x="292.8" y="1471.9"/>
      <point x="292.8" y="1226.7" type="curve" smooth="yes"/>
      <point x="295.7" y="-12.6" type="line"/>
      <point x="485.9" y="-12.6" type="line"/>
      <point x="485.9" y="104.6"/>
      <point x="484.9" y="238.6"/>
      <point x="484.9" y="365.6" type="curve" smooth="yes"/>
      <point x="484.9" y="508.5"/>
      <point x="482.9" y="667.1"/>
      <point x="482.9" y="810.0" type="curve" smooth="yes"/>
      <point x="482.9" y="936.1"/>
      <point x="481.9" y="1072.0"/>
      <point x="481.9" y="1189.2" type="curve" smooth="yes"/>
      <point x="481.9" y="1408.9"/>
      <point x="569.6" y="1586.3"/>
      <point x="789.3" y="1586.3" type="curve" smooth="yes"/>
      <point x="937.1" y="1586.3"/>
      <point x="1044.4" y="1513.3"/>
      <point x="1044.4" y="1365.6" type="curve" smooth="yes"/>
      <point x="1044.4" y="1326.2"/>
      <point x="1037.5" y="1288.8"/>
      <point x="1022.7" y="1255.2" type="curve" smooth="yes"/>
      <point x="975.4" y="1145.9"/>
      <point x="879.9" y="1069.0"/>
      <point x="771.6" y="1019.8" type="curve"/>
      <point x="752.9" y="862.2" type="line"/>
      <point x="869.1" y="797.1"/>
      <point x="990.3" y="729.2"/>
      <point x="1083.9" y="646.5" type="curve" smooth="yes"/>
      <point x="1159.8" y="580.4"/>
      <point x="1232.6" y="493.7"/>
      <point x="1232.6" y="360.7" type="curve" smooth="yes"/>
      <point x="1232.6" y="215.9"/>
      <point x="1145.9" y="113.5"/>
      <point x="1004.0" y="113.5" type="curve" smooth="yes"/>
      <point x="877.9" y="113.5"/>
      <point x="782.4" y="187.4"/>
      <point x="712.4" y="269.1" type="curve"/>
      <point x="636.6" y="147.9" type="line"/>
      <point x="719.4" y="41.6"/>
      <point x="841.5" y="-38.3"/>
    </contour>
  </outline>
</glyph>
<glyph name="eth" format="1">
  <advance width="2004.5"/>
  <unicode hex="00F0"/>
  <outline>
    <contour>
      <point x="718.7" y="-38.3" type="curve" smooth="yes"/>
      <point x="812.3" y="-38.3"/>
      <point x="895.1" y="-20.6"/>
      <point x="969.0" y="13.0" type="curve" smooth="yes"/>
      <point x="1209.4" y="128.2"/>
      <point x="1310.8" y="405.1"/>
      <point x="1310.8" y="765.6" type="curve" smooth="yes"/>
      <point x="1310.8" y="920.2"/>
      <point x="1290.1" y="1053.3"/>
      <point x="1255.6" y="1174.5" type="curve"/>
      <point x="1423.1" y="1174.5" type="line"/>
      <point x="1423.1" y="1333.1" type="line"/>
      <point x="1195.5" y="1333.1" type="line"/>
      <point x="1110.8" y="1509.4"/>
      <point x="985.7" y="1639.5"/>
      <point x="801.5" y="1711.4" type="curve"/>
      <point x="710.8" y="1613.9" type="line"/>
      <point x="837.9" y="1542.9"/>
      <point x="932.5" y="1458.2"/>
      <point x="1002.4" y="1333.1" type="curve"/>
      <point x="764.0" y="1333.1" type="line"/>
      <point x="764.0" y="1174.5" type="line"/>
      <point x="1066.5" y="1174.5" type="line"/>
      <point x="1094.1" y="1072.0"/>
      <point x="1106.9" y="967.6"/>
      <point x="1107.9" y="835.6" type="curve"/>
      <point x="1107.9" y="824.7" type="line"/>
      <point x="1025.1" y="956.8"/>
      <point x="885.2" y="1025.7"/>
      <point x="676.4" y="1025.7" type="curve" smooth="yes"/>
      <point x="595.6" y="1025.7"/>
      <point x="523.6" y="1012.9"/>
      <point x="458.6" y="987.3" type="curve" smooth="yes"/>
      <point x="277.3" y="915.4"/>
      <point x="148.3" y="753.8"/>
      <point x="148.3" y="503.6" type="curve" smooth="yes"/>
      <point x="148.3" y="427.7"/>
      <point x="160.2" y="354.9"/>
      <point x="187.7" y="289.8" type="curve" smooth="yes"/>
      <point x="264.6" y="94.8"/>
      <point x="448.7" y="-38.3"/>
    </contour>
    <contour>
      <point x="709.8" y="125.2" type="curve" smooth="yes"/>
      <point x="654.7" y="125.2"/>
      <point x="606.4" y="133.2"/>
      <point x="562.1" y="151.9" type="curve" smooth="yes"/>
      <point x="438.0" y="205.1"/>
      <point x="352.2" y="325.2"/>
      <point x="352.2" y="497.7" type="curve" smooth="yes"/>
      <point x="352.2" y="726.2"/>
      <point x="477.4" y="863.2"/>
      <point x="707.9" y="863.2" type="curve" smooth="yes"/>
      <point x="904.9" y="863.2"/>
      <point x="1039.9" y="755.8"/>
      <point x="1091.1" y="608.0" type="curve"/>
      <point x="1091.1" y="580.4" type="line" smooth="yes"/>
      <point x="1091.1" y="323.3"/>
      <point x="969.0" y="125.2"/>
    </contour>
  </outline>
</glyph>
<glyph name="thorn" format="1">
  <advance width="2086.8"/>
  <unicode hex="00FE"/>
  <outline>
    <contour>
      <point x="266.9" y="-719.5" type="line"/>
      <point x="457.1" y="-719.5" type="line"/>
      <point x="457.1" y="-69.3" type="line"/>
      <point x="556.6" y="-191.4"/>
      <point x="689.6" y="-252.5"/>
      <point x="856.1" y="-252.5" type="curve" smooth="yes"/>
      <point x="947.7" y="-252.5"/>
      <point x="1026.5" y="-233.9"/>
      <point x="1094.5" y="-199.4" type="curve" smooth="yes"/>
      <point x="1283.6" y="-102.8"/>
      <point x="1400.9" y="103.1"/>
      <point x="1400.9" y="383.9" type="curve" smooth="yes"/>
      <point x="1400.9" y="465.7"/>
      <point x="1389.1" y="542.5"/>
      <point x="1367.4" y="617.3" type="curve" smooth="yes"/>
      <point x="1303.3" y="834.1"/>
      <point x="1137.9" y="989.8"/>
      <point x="856.1" y="989.8" type="curve" smooth="yes"/>
      <point x="669.9" y="989.8"/>
      <point x="545.7" y="910.0"/>
      <point x="460.0" y="794.7" type="curve"/>
      <point x="460.0" y="1457.7" type="line"/>
      <point x="266.9" y="1457.7" type="line"/>
    </contour>
    <contour>
      <point x="828.5" y="-99.8" type="curve" smooth="yes"/>
      <point x="768.4" y="-99.8"/>
      <point x="714.3" y="-88.0"/>
      <point x="668.9" y="-66.3" type="curve" smooth="yes"/>
      <point x="533.0" y="-0.3"/>
      <point x="457.1" y="145.5"/>
      <point x="457.1" y="345.5" type="curve" smooth="yes"/>
      <point x="457.1" y="621.3"/>
      <point x="559.5" y="835.1"/>
      <point x="835.4" y="835.1" type="curve" smooth="yes"/>
      <point x="1096.4" y="835.1"/>
      <point x="1197.9" y="636.1"/>
      <point x="1197.9" y="377.0" type="curve" smooth="yes"/>
      <point x="1197.9" y="116.9"/>
      <point x="1090.5" y="-99.8"/>
    </contour>
  </outline>
</glyph>
<glyph name="dotlessi" format="1">
  <advance width="1006.1"/>
  <unicode hex="0131"/>
  <outline>
    <contour>
      <point x="568.1" y="-8.6" type="curve" smooth="yes"/>
      <point x="625.0" y="-8.6"/>
      <point x="696.7" y="6.4"/>
      <point x="759.3" y="31.8" type="curve"/>
      <point x="736.6" y="232.8" type="line"/>
      <point x="691.7" y="216.2"/>
      <point x="642.7" y="206.2"/>
      <point x="609.1" y="206.2" type="curve" smooth="yes"/>
      <point x="523.1" y="206.2"/>
      <point x="469.7" y="273.5"/>
      <point x="469.7" y="397.3" type="curve" smooth="yes"/>
      <point x="469.7" y="1183.5" type="line"/>
      <point x="183.2" y="1183.5" type="line"/>
      <point x="183.2" y="318.5" type="line" smooth="yes"/>
      <point x="183.2" y="109.3"/>
      <point x="328.9" y="-8.6"/>
    </contour>
  </outline>
</glyph>
<glyph name="kgreenlandic" format="1">
  <advance width="1822.7"/>
  <unicode hex="0138"/>
  <outline>
    <contour>
      <point x="300.4" y="0.0" type="line"/>
      <point x="490.6" y="0.0" type="line"/>
      <point x="490.6" y="544.8" type="line"/>
      <point x="1080.7" y="0.0" type="line"/>
      <point x="1333.9" y="0.0" type="line"/>
      <point x="1113.2" y="201.0"/>
      <point x="898.4" y="390.2"/>
      <point x="677.7" y="592.1" type="curve"/>
      <point x="1290.5" y="1187.1" type="line"/>
      <point x="1029.5" y="1187.1" type="line"/>
      <point x="490.6" y="644.3" type="line"/>
      <point x="490.6" y="1187.1" type="line"/>
      <point x="300.4" y="1187.1" type="line"/>
    </contour>
  </outline>
</glyph>
<glyph name="Lslash" format="1">
  <advance width="1886.8"/>
  <unicode hex="0141"/>
  <outline>
    <contour>
      <point x="241.6" y="0.0" type="line"/>
      <point x="1249.4" y="0.0" type="line"/>
      <point x="1249.4" y="171.4" type="line"/>
      <point x="440.6" y="171.4" type="line"/>
      <point x="440.6" y="823.6" type="line"/>
      <point x="770.6" y="1029.5" type="line"/>
      <point x="770.6" y="1188.1" type="line"/>
      <point x="440.6" y="982.2" type="line"/>
      <point x="440.6" y="1684.6" type="line"/>
      <point x="241.6" y="1684.6" type="line"/>
      <point x="241.6" y="858.1" type="line"/>
      <point x="25.8" y="724.1" type="line"/>
      <point x="25.8" y="565.5" type="line"/>
      <point x="241.6" y="699.5" type="line"/>
    </contour>
  </outline>
</glyph>
<glyph name="florin" format="1">
  <advance width="2004.5"/>
  <unicode hex="0192"/>
  <outline>
    <contour>
      <point x="242.7" y="-559.7" type="curve" smooth="yes"/>
      <point x="313.6" y="-559.7"/>
      <point x="374.6" y="-545.0"/>
      <point x="420.9" y="-516.4" type="curve" smooth="yes"/>
      <point x="567.7" y="-427.7"/>
      <point x="615.1" y="-234.7"/>
      <point x="654.4" y="-36.6" type="curve"/>
      <point x="801.2" y="753.5" type="line"/>
      <point x="1047.5" y="753.5" type="line"/>
      <point x="1058.4" y="915.1" type="line"/>
      <point x="827.8" y="915.1" type="line"/>
      <point x="869.2" y="1142.6" type="line" smooth="yes"/>
      <point x="890.8" y="1254.9"/>
      <point x="936.2" y="1321.0"/>
      <point x="1070.1" y="1321.0" type="curve" smooth="yes"/>
      <point x="1115.5" y="1321.0"/>
      <point x="1156.9" y="1311.1"/>
      <point x="1195.3" y="1296.3" type="curve"/>
      <point x="1204.2" y="1463.8" type="line"/>
      <point x="1153.0" y="1476.6"/>
      <point x="1096.8" y="1485.5"/>
      <point x="1039.6" y="1485.5" type="curve" smooth="yes"/>
      <point x="782.5" y="1485.5"/>
      <point x="686.9" y="1315.0"/>
      <point x="656.4" y="1090.4" type="curve"/>
      <point x="629.8" y="915.1" type="line"/>
      <point x="434.7" y="915.1" type="line"/>
      <point x="422.9" y="753.5" type="line"/>
      <point x="602.2" y="753.5" type="line"/>
      <point x="543.1" y="447.1"/>
      <point x="497.8" y="125.0"/>
      <point x="424.9" y="-167.6" type="curve" smooth="yes"/>
      <point x="399.3" y="-273.0"/>
      <point x="356.9" y="-399.2"/>
      <point x="227.8" y="-399.2" type="curve" smooth="yes"/>
      <point x="199.2" y="-399.2"/>
      <point x="168.7" y="-394.2"/>
      <point x="137.2" y="-381.4" type="curve"/>
      <point x="123.4" y="-541.0" type="line"/>
      <point x="166.8" y="-553.8"/>
      <point x="207.2" y="-559.7"/>
    </contour>
  </outline>
</glyph>
<glyph name="uni0216" format="1">
  <advance width="2575.5"/>
  <unicode hex="0216"/>
  <outline>
    <contour>
      <point x="995.6" y="-37.3" type="curve" smooth="yes"/>
      <point x="1414.3" y="-37.3"/>
      <point x="1640.9" y="209.9"/>
      <point x="1642.9" y="625.7" type="curve"/>
      <point x="1642.9" y="1672.9" type="line"/>
      <point x="1445.8" y="1672.9" type="line"/>
      <point x="1445.8" y="611.9" type="line" smooth="yes"/>
      <point x="1445.8" y="311.4"/>
      <point x="1285.2" y="131.1"/>
      <point x="993.6" y="131.1" type="curve" smooth="yes"/>
      <point x="679.3" y="131.1"/>
      <point x="517.8" y="289.7"/>
      <point x="517.8" y="619.8" type="curve" smooth="yes"/>
      <point x="517.8" y="1672.9" type="line"/>
      <point x="318.8" y="1672.9" type="line"/>
      <point x="318.8" y="614.8" type="line" smooth="yes"/>
      <point x="318.8" y="170.5"/>
      <point x="551.3" y="-37.3"/>
    </contour>
    <contour>
      <point x="653.7" y="1894.6" type="curve"/>
      <point x="753.3" y="1894.6" type="line"/>
      <point x="771.0" y="1996.1"/>
      <point x="855.7" y="2043.4"/>
      <point x="973.9" y="2043.4" type="curve" smooth="yes"/>
      <point x="1092.1" y="2043.4"/>
      <point x="1183.7" y="1992.1"/>
      <point x="1206.4" y="1894.6" type="curve"/>
      <point x="1305.9" y="1894.6" type="line"/>
      <point x="1291.1" y="2072.9"/>
      <point x="1173.9" y="2167.5"/>
      <point x="982.7" y="2167.5" type="curve" smooth="yes"/>
      <point x="784.7" y="2167.5"/>
      <point x="668.5" y="2079.8"/>
    </contour>
  </outline>
</glyph>
<glyph name="uni0217" format="1">
  <advance width="2023.4"/>
  <unicode hex="0217"/>
  <outline>
    <contour>
      <point x="670.5" y="-37.3" type="curve" smooth="yes"/>
      <point x="853.7" y="-37.3"/>
      <point x="996.9" y="35.5"/>
      <point x="1085.6" y="178.4" type="curve"/>
      <point x="1115.6" y="49.3"/>
      <point x="1239.4" y="-18.6"/>
      <point x="1357.7" y="-15.6" type="curve"/>
      <point x="1395.3" y="148.5" type="line"/>
      <point x="1331.2" y="146.5"/>
      <point x="1239.9" y="183.0"/>
      <point x="1239.9" y="320.9" type="curve" smooth="yes"/>
      <point x="1239.9" y="1175.4" type="line"/>
      <point x="1049.8" y="1175.4" type="line"/>
      <point x="1049.8" y="481.9" type="line" smooth="yes"/>
      <point x="1049.8" y="255.3"/>
      <point x="890.2" y="123.2"/>
      <point x="699.1" y="123.2" type="curve" smooth="yes"/>
      <point x="560.1" y="123.2"/>
      <point x="420.2" y="184.3"/>
      <point x="426.1" y="410.9" type="curve" smooth="yes"/>
      <point x="432.1" y="676.9" type="line" smooth="yes"/>
      <point x="442.9" y="1045.4"/>
      <point x="385.7" y="1175.4"/>
      <point x="385.7" y="1175.4" type="curve"/>
      <point x="194.6" y="1144.9" type="line"/>
      <point x="194.6" y="1144.9"/>
      <point x="251.8" y="999.1"/>
      <point x="241.9" y="662.1" type="curve" smooth="yes"/>
      <point x="235.0" y="410.9" type="line" smooth="yes"/>
      <point x="226.1" y="80.9"/>
      <point x="446.8" y="-37.3"/>
    </contour>
    <contour>
      <point x="430.1" y="1397.1" type="curve"/>
      <point x="530.6" y="1397.1" type="line"/>
      <point x="548.3" y="1498.6"/>
      <point x="633.0" y="1546.8"/>
      <point x="751.2" y="1546.8" type="curve" smooth="yes"/>
      <point x="869.4" y="1546.8"/>
      <point x="960.1" y="1493.7"/>
      <point x="982.8" y="1397.1" type="curve"/>
      <point x="1082.3" y="1397.1" type="line"/>
      <point x="1067.5" y="1575.4"/>
      <point x="951.2" y="1670.0"/>
      <point x="759.1" y="1670.0" type="curve" smooth="yes"/>
      <point x="562.0" y="1670.0"/>
      <point x="444.9" y="1581.4"/>
    </contour>
  </outline>
</glyph>
<glyph name="circumflex" format="1">
  <advance width="1177.8"/>
  <unicode hex="02C6"/>
  <outline>
    <contour>
      <point x="27.8" y="1971.9" type="line"/>
      <point x="236.6" y="1971.9" type="line"/>
      <point x="402.9" y="2159.1" type="line"/>
      <point x="563.8" y="1971.9" type="line"/>
      <point x="780.4" y="1971.9" type="line"/>
      <point x="493.8" y="2347.2" type="line"/>
      <point x="312.5" y="2347.2" type="line"/>
    </contour>
  </outline>
</glyph>
<glyph name="dotaccent" format="1">
  <advance width="882.2"/>
  <unicode hex="02D9"/>
  <outline>
    <contour>
      <point x="310.0" y="2100.1" type="line"/>
      <point x="496.1" y="2100.1" type="line"/>
      <point x="496.1" y="2288.3" type="line"/>
      <point x="310.0" y="2288.3" type="line"/>
    </contour>
  </outline>
</glyph>
<glyph name="ogonek" format="1">
  <advance width="855.4"/>
  <unicode hex="02DB"/>
  <outline>
    <contour>
      <point x="333.5" y="-657.3" type="curve" smooth="yes"/>
      <point x="407.4" y="-657.3"/>
      <point x="485.2" y="-645.5"/>
      <point x="537.5" y="-623.8" type="curve"/>
      <point x="537.5" y="-495.7" type="line"/>
      <point x="485.2" y="-516.4"/>
      <point x="434.0" y="-531.2"/>
      <point x="359.2" y="-531.2" type="curve" smooth="yes"/>
      <point x="300.1" y="-531.2"/>
      <point x="243.9" y="-495.7"/>
      <point x="243.9" y="-436.6" type="curve" smooth="yes"/>
      <point x="243.9" y="-417.9"/>
      <point x="248.9" y="-399.2"/>
      <point x="260.7" y="-380.5" type="curve" smooth="yes"/>
      <point x="309.9" y="-305.6"/>
      <point x="398.6" y="-255.3"/>
      <point x="478.4" y="-206.1" type="curve"/>
      <point x="329.6" y="-192.3" type="line"/>
      <point x="266.6" y="-222.8"/>
      <point x="203.6" y="-263.2"/>
      <point x="158.2" y="-309.5" type="curve" smooth="yes"/>
      <point x="119.8" y="-347.9"/>
      <point x="80.4" y="-399.2"/>
      <point x="80.4" y="-467.1" type="curve" smooth="yes"/>
      <point x="80.4" y="-497.7"/>
      <point x="88.2" y="-525.3"/>
      <point x="100.1" y="-548.0" type="curve" smooth="yes"/>
      <point x="139.5" y="-618.9"/>
      <point x="224.2" y="-657.3"/>
    </contour>
  </outline>
</glyph>
<glyph name="hungarumlaut" format="1">
  <advance width="1630.5"/>
  <unicode hex="02DD"/>
  <outline>
    <contour>
      <point x="273.6" y="1977.7" type="line"/>
      <point x="409.6" y="1977.7" type="line"/>
      <point x="727.8" y="2340.2" type="line"/>
      <point x="523.9" y="2340.2" type="line"/>
    </contour>
    <contour>
      <point x="582.0" y="1977.7" type="line"/>
      <point x="720.9" y="1977.7" type="line"/>
      <point x="1040.1" y="2340.2" type="line"/>
      <point x="836.2" y="2340.2" type="line"/>
    </contour>
  </outline>
</glyph>
<glyph name="uni0307" format="1">
  <advance width="882.2"/>
  <unicode hex="0307"/>
  <outline>
    <contour>
      <point x="310.0" y="2100.1" type="line"/>
      <point x="496.1" y="2100.1" type="line"/>
      <point x="496.1" y="2288.3" type="line"/>
      <point x="310.0" y="2288.3" type="line"/>
    </contour>
  </outline>
</glyph>
<glyph name="uni03BC" format="1">
  <advance width="2050.4"/>
  <unicode hex="03BC"/>
  <outline>
    <contour>
      <point x="265.0" y="-340.6" type="line"/>
      <point x="455.2" y="-340.6" type="line"/>
      <point x="455.2" y="-71.6" type="line"/>
      <point x="521.2" y="-111.0"/>
      <point x="602.9" y="-132.8"/>
      <point x="708.3" y="-132.8" type="curve" smooth="yes"/>
      <point x="879.7" y="-132.8"/>
      <point x="1009.8" y="-71.7"/>
      <point x="1098.5" y="49.5" type="curve"/>
      <point x="1102.4" y="-107.1" type="line"/>
      <point x="1298.5" y="-107.1" type="line"/>
      <point x="1290.6" y="-9.6"/>
      <point x="1289.6" y="73.2"/>
      <point x="1289.6" y="177.6" type="curve" smooth="yes"/>
      <point x="1289.6" y="1080.0" type="line"/>
      <point x="1098.5" y="1080.0" type="line"/>
      <point x="1098.5" y="397.3" type="line" smooth="yes"/>
      <point x="1098.5" y="346.1"/>
      <point x="1090.6" y="297.8"/>
      <point x="1075.8" y="251.5" type="curve" smooth="yes"/>
      <point x="1031.5" y="119.5"/>
      <point x="926.1" y="19.0"/>
      <point x="751.7" y="19.0" type="curve" smooth="yes"/>
      <point x="540.9" y="19.0"/>
      <point x="455.2" y="140.2"/>
      <point x="455.2" y="354.9" type="curve" smooth="yes"/>
      <point x="455.2" y="1080.0" type="line"/>
      <point x="265.0" y="1080.0" type="line"/>
    </contour>
  </outline>
</glyph>
<glyph name="pi" format="1">
  <advance width="2170.0"/>
  <unicode hex="03C0"/>
  <outline>
    <contour>
      <point x="1236.5" y="-13.4" type="curve" smooth="yes"/>
      <point x="1290.7" y="-13.4"/>
      <point x="1342.9" y="-5.6"/>
      <point x="1395.1" y="3.3" type="curve"/>
      <point x="1383.3" y="36.8"/>
      <point x="1380.3" y="71.3"/>
      <point x="1380.3" y="111.7" type="curve" smooth="yes"/>
      <point x="1380.3" y="123.5"/>
      <point x="1380.3" y="135.3"/>
      <point x="1381.3" y="146.2" type="curve" smooth="yes"/>
      <point x="1383.3" y="180.7" type="line"/>
      <point x="1349.8" y="170.8"/>
      <point x="1319.3" y="165.9"/>
      <point x="1290.7" y="165.9" type="curve" smooth="yes"/>
      <point x="1194.1" y="165.9"/>
      <point x="1176.5" y="234.8"/>
      <point x="1176.5" y="329.4" type="curve" smooth="yes"/>
      <point x="1176.5" y="1044.7" type="line"/>
      <point x="1412.9" y="1044.7" type="line"/>
      <point x="1412.9" y="1199.3" type="line"/>
      <point x="436.5" y="1199.3" type="line" smooth="yes"/>
      <point x="272.0" y="1199.3"/>
      <point x="120.3" y="1196.3"/>
      <point x="28.7" y="1126.4" type="curve"/>
      <point x="48.4" y="974.7" type="line"/>
      <point x="137.1" y="1022.0"/>
      <point x="232.7" y="1041.7"/>
      <point x="368.6" y="1044.7" type="curve"/>
      <point x="363.6" y="849.7"/>
      <point x="351.8" y="651.6"/>
      <point x="328.2" y="471.3" type="curve" smooth="yes"/>
      <point x="306.5" y="299.9"/>
      <point x="277.9" y="117.6"/>
      <point x="208.0" y="-3.6" type="curve"/>
      <point x="403.1" y="-3.6" type="line"/>
      <point x="417.8" y="20.1"/>
      <point x="429.7" y="54.6"/>
      <point x="441.5" y="97.9" type="curve" smooth="yes"/>
      <point x="517.3" y="383.6"/>
      <point x="539.0" y="711.7"/>
      <point x="564.6" y="1044.7" type="curve"/>
      <point x="994.1" y="1044.7" type="line"/>
      <point x="994.1" y="317.7" type="line" smooth="yes"/>
      <point x="994.1" y="115.7"/>
      <point x="1036.5" y="-13.4"/>
    </contour>
  </outline>
</glyph>
<glyph name="endash" format="1">
  <advance width="1827.5"/>
  <unicode hex="2013"/>
  <outline>
    <contour>
      <point x="-9.6" y="823.8" type="line"/>
      <point x="1250.5" y="823.8" type="line"/>
      <point x="1250.5" y="982.4" type="line"/>
      <point x="-9.6" y="982.4" type="line"/>
    </contour>
  </outline>
</glyph>
<glyph name="emdash" format="1">
  <advance width="3657.8"/>
  <unicode hex="2014"/>
  <outline>
    <contour>
      <point x="-4.8" y="823.8" type="line"/>
      <point x="2496.6" y="823.8" type="line"/>
      <point x="2496.6" y="982.4" type="line"/>
      <point x="-4.8" y="982.4" type="line"/>
    </contour>
  </outline>
</glyph>
<glyph name="quoteleft" format="1">
  <advance width="931.9"/>
  <unicode hex="2018"/>
  <outline>
    <contour>
      <point x="219.1" y="1724.1" type="line"/>
      <point x="429.9" y="1724.1" type="line"/>
      <point x="550.1" y="2233.4" type="line"/>
      <point x="397.4" y="2233.4" type="line"/>
    </contour>
  </outline>
</glyph>
<glyph name="quotedblleft" format="1">
  <advance width="1725.1"/>
  <unicode hex="201C"/>
  <outline>
    <contour>
      <point x="302.3" y="1724.1" type="line"/>
      <point x="512.2" y="1724.1" type="line"/>
      <point x="633.4" y="2233.4" type="line"/>
      <point x="479.7" y="2233.4" type="line"/>
    </contour>
    <contour>
      <point x="705.3" y="1724.1" type="line"/>
      <point x="917.1" y="1724.1" type="line"/>
      <point x="1037.3" y="2233.4" type="line"/>
      <point x="883.6" y="2233.4" type="line"/>
    </contour>
  </outline>
</glyph>
<glyph name="quotedblright" format="1">
  <advance width="1725.1"/>
  <unicode hex="201D"/>
  <outline>
    <contour>
      <point x="350.2" y="1724.1" type="line"/>
      <point x="503.9" y="1724.1" type="line"/>
      <point x="682.1" y="2233.4" type="line"/>
      <point x="470.4" y="2233.4" type="line"/>
    </contour>
    <contour>
      <point x="727.5" y="1724.1" type="line"/>
      <point x="882.1" y="1724.1" type="line"/>
      <point x="1059.5" y="2233.4" type="line"/>
      <point x="849.6" y="2233.4" type="line"/>
    </contour>
  </outline>
</glyph>
<glyph name="dagger" format="1">
  <advance width="1721.3"/>
  <unicode hex="2020"/>
  <outline>
    <contour>
      <point x="557.2" y="190.4" type="line"/>
      <point x="705.9" y="190.4" type="line"/>
      <point x="705.9" y="1140.1" type="line"/>
      <point x="1119.7" y="1140.1" type="line"/>
      <point x="1119.7" y="1292.8" type="line"/>
      <point x="721.7" y="1292.8" type="line"/>
      <point x="721.7" y="1738.1" type="line"/>
      <point x="557.2" y="1738.1" type="line"/>
      <point x="557.2" y="1292.8" type="line"/>
      <point x="179.9" y="1292.8" type="line"/>
      <point x="179.9" y="1140.1" type="line"/>
      <point x="557.2" y="1140.1" type="line"/>
    </contour>
  </outline>
</glyph>
<glyph name="daggerdbl" format="1">
  <advance width="1721.3"/>
  <unicode hex="2021"/>
  <outline>
    <contour>
      <point x="537.0" y="190.4" type="line"/>
      <point x="735.9" y="190.4" type="line"/>
      <point x="705.4" y="562.8" type="line"/>
      <point x="1103.4" y="562.8" type="line"/>
      <point x="1103.4" y="709.6" type="line"/>
      <point x="705.4" y="709.6" type="line"/>
      <point x="705.4" y="1196.3" type="line"/>
      <point x="1111.3" y="1196.3" type="line"/>
      <point x="1111.3" y="1349.9" type="line"/>
      <point x="713.3" y="1349.9" type="line"/>
      <point x="737.0" y="1738.1" type="line"/>
      <point x="539.9" y="1738.1" type="line"/>
      <point x="570.4" y="1349.9" type="line"/>
      <point x="172.4" y="1349.9" type="line"/>
      <point x="172.4" y="1196.3" type="line"/>
      <point x="562.6" y="1196.3" type="line"/>
      <point x="562.6" y="709.6" type="line"/>
      <point x="165.5" y="709.6" type="line"/>
      <point x="165.5" y="562.8" type="line"/>
      <point x="562.6" y="562.8" type="line"/>
    </contour>
  </outline>
</glyph>
<glyph name="bullet" format="1">
  <advance width="1664.0"/>
  <unicode hex="2022"/>
  <outline>
    <contour>
      <point x="654.1" y="648.7" type="curve" smooth="yes"/>
      <point x="771.3" y="648.7"/>
      <point x="866.0" y="696.0"/>
      <point x="930.0" y="756.1" type="curve" smooth="yes"/>
      <point x="993.0" y="813.3"/>
      <point x="1047.2" y="901.9"/>
      <point x="1047.2" y="1014.2" type="curve" smooth="yes"/>
      <point x="1047.2" y="1062.5"/>
      <point x="1037.3" y="1108.7"/>
      <point x="1015.7" y="1152.1" type="curve" smooth="yes"/>
      <point x="958.6" y="1273.3"/>
      <point x="835.4" y="1370.9"/>
      <point x="659.1" y="1370.9" type="curve" smooth="yes"/>
      <point x="607.8" y="1370.9"/>
      <point x="556.6" y="1362.9"/>
      <point x="509.3" y="1342.3" type="curve" smooth="yes"/>
      <point x="383.2" y="1291.1"/>
      <point x="265.0" y="1177.7"/>
      <point x="265.0" y="1006.3" type="curve" smooth="yes"/>
      <point x="265.0" y="958.0"/>
      <point x="274.9" y="910.8"/>
      <point x="294.6" y="868.4" type="curve" smooth="yes"/>
      <point x="351.7" y="745.3"/>
      <point x="475.9" y="648.7"/>
    </contour>
  </outline>
</glyph>
<glyph name="guilsinglright" format="1">
  <advance width="1081.2"/>
  <unicode hex="203A"/>
  <outline>
    <contour>
      <point x="173.2" y="288.0" type="line"/>
      <point x="355.4" y="288.0" type="line"/>
      <point x="675.6" y="717.5" type="line"/>
      <point x="362.3" y="1148.0" type="line"/>
      <point x="183.0" y="1148.0" type="line"/>
      <point x="476.6" y="717.5" type="line"/>
    </contour>
  </outline>
</glyph>
<glyph name="fraction" format="1">
  <advance width="620.0"/>
  <unicode hex="2044"/>
  <outline>
    <contour>
      <point x="-567.4" y="0.0" type="line"/>
      <point x="-393.0" y="0.0" type="line"/>
      <point x="651.3" y="1661.0" type="line"/>
      <point x="478.9" y="1661.0" type="line"/>
    </contour>
  </outline>
</glyph>
<glyph name="uni2074" format="1">
  <advance width="1510.8"/>
  <unicode hex="2074"/>
  <outline>
    <contour>
      <point x="400.1" y="1037.1" type="line"/>
      <point x="539.0" y="1037.1" type="line"/>
      <point x="539.0" y="1254.8" type="line"/>
      <point x="678.9" y="1254.8" type="line"/>
      <point x="667.1" y="1378.0" type="line"/>
      <point x="541.9" y="1378.0" type="line"/>
      <point x="541.9" y="1958.3" type="line"/>
      <point x="386.3" y="1958.3" type="line"/>
      <point x="-37.3" y="1359.3" type="line"/>
      <point x="-37.3" y="1254.8" type="line"/>
      <point x="400.1" y="1254.8" type="line"/>
    </contour>
    <contour>
      <point x="124.2" y="1378.0" type="line"/>
      <point x="400.1" y="1764.2" type="line"/>
      <point x="400.1" y="1378.0" type="line"/>
    </contour>
  </outline>
</glyph>
<glyph name="partialdiff" format="1">
  <advance width="1966.2"/>
  <unicode hex="2202"/>
  <outline>
    <contour>
      <point x="613.5" y="-40.2" type="curve" smooth="yes"/>
      <point x="688.4" y="-40.2"/>
      <point x="759.3" y="-27.3"/>
      <point x="821.4" y="0.2" type="curve" smooth="yes"/>
      <point x="953.4" y="57.3"/>
      <point x="1050.9" y="155.9"/>
      <point x="1120.9" y="279.0" type="curve" smooth="yes"/>
      <point x="1223.4" y="458.3"/>
      <point x="1286.4" y="693.8"/>
      <point x="1286.4" y="972.6" type="curve" smooth="yes"/>
      <point x="1286.4" y="1108.5"/>
      <point x="1273.6" y="1224.8"/>
      <point x="1247.0" y="1324.3" type="curve" smooth="yes"/>
      <point x="1181.0" y="1575.5"/>
      <point x="1030.3" y="1760.7"/>
      <point x="723.9" y="1760.7" type="curve" smooth="yes"/>
      <point x="583.0" y="1760.7"/>
      <point x="454.9" y="1713.4"/>
      <point x="368.2" y="1655.3" type="curve"/>
      <point x="380.1" y="1495.7" type="line"/>
      <point x="460.9" y="1549.9"/>
      <point x="566.2" y="1606.0"/>
      <point x="697.3" y="1606.0" type="curve" smooth="yes"/>
      <point x="759.3" y="1606.0"/>
      <point x="811.6" y="1593.2"/>
      <point x="860.8" y="1567.6" type="curve" smooth="yes"/>
      <point x="1017.5" y="1482.9"/>
      <point x="1088.4" y="1286.8"/>
      <point x="1088.4" y="1041.5" type="curve" smooth="yes"/>
      <point x="1088.4" y="1016.9"/>
      <point x="1087.4" y="977.5"/>
      <point x="1087.4" y="954.8" type="curve"/>
      <point x="1006.6" y="1060.2"/>
      <point x="894.4" y="1146.9"/>
      <point x="721.9" y="1146.9" type="curve" smooth="yes"/>
      <point x="640.2" y="1146.9"/>
      <point x="566.2" y="1128.3"/>
      <point x="495.3" y="1093.8" type="curve" smooth="yes"/>
      <point x="290.4" y="994.2"/>
      <point x="139.7" y="775.5"/>
      <point x="139.7" y="473.1" type="curve" smooth="yes"/>
      <point x="139.7" y="400.2"/>
      <point x="149.6" y="333.2"/>
      <point x="169.3" y="270.2" type="curve" smooth="yes"/>
      <point x="228.4" y="87.0"/>
      <point x="373.1" y="-40.2"/>
    </contour>
    <contour>
      <point x="616.5" y="115.5" type="curve" smooth="yes"/>
      <point x="573.2" y="115.5"/>
      <point x="533.8" y="124.3"/>
      <point x="500.2" y="141.1" type="curve" smooth="yes"/>
      <point x="393.8" y="193.3"/>
      <point x="335.7" y="311.5"/>
      <point x="335.7" y="470.1" type="curve" smooth="yes"/>
      <point x="335.7" y="619.9"/>
      <point x="386.0" y="748.9"/>
      <point x="454.0" y="836.6" type="curve" smooth="yes"/>
      <point x="517.0" y="918.3"/>
      <point x="615.5" y="992.3"/>
      <point x="748.5" y="992.3" type="curve" smooth="yes"/>
      <point x="788.9" y="992.3"/>
      <point x="825.4" y="986.4"/>
      <point x="858.9" y="972.6" type="curve" smooth="yes"/>
      <point x="959.4" y="932.2"/>
      <point x="1030.3" y="848.4"/>
      <point x="1067.7" y="745.0" type="curve"/>
      <point x="1048.0" y="573.6"/>
      <point x="992.9" y="414.0"/>
      <point x="917.0" y="300.7" type="curve" smooth="yes"/>
      <point x="853.9" y="207.1"/>
      <point x="758.4" y="115.5"/>
    </contour>
  </outline>
</glyph>
<glyph name="minus" format="1">
  <advance width="2456.1"/>
  <unicode hex="2212"/>
  <outline>
    <contour>
      <point x="333.9" y="836.2" type="line"/>
      <point x="1547.6" y="836.2" type="line"/>
      <point x="1547.6" y="994.8" type="line"/>
      <point x="333.9" y="994.8" type="line"/>
    </contour>
  </outline>
</glyph>
<glyph name="integral" format="1">
  <advance width="1182.6"/>
  <unicode hex="222B"/>
  <outline>
    <contour>
      <point x="365.3" y="-672.6" type="curve" smooth="yes"/>
      <point x="623.4" y="-672.6"/>
      <point x="709.1" y="-494.3"/>
      <point x="709.1" y="-237.2" type="curve" smooth="yes"/>
      <point x="709.1" y="1269.1" type="line" smooth="yes"/>
      <point x="709.1" y="1426.7"/>
      <point x="740.6" y="1519.4"/>
      <point x="898.2" y="1519.4" type="curve" smooth="yes"/>
      <point x="940.6" y="1519.4"/>
      <point x="994.8" y="1514.4"/>
      <point x="1025.3" y="1502.6" type="curve"/>
      <point x="1022.4" y="1651.4" type="line"/>
      <point x="971.2" y="1663.2"/>
      <point x="927.9" y="1675.1"/>
      <point x="864.8" y="1675.1" type="curve" smooth="yes"/>
      <point x="607.6" y="1675.1"/>
      <point x="519.0" y="1497.7"/>
      <point x="519.0" y="1240.6" type="curve" smooth="yes"/>
      <point x="519.0" y="-264.8" type="line" smooth="yes"/>
      <point x="519.0" y="-422.4"/>
      <point x="490.4" y="-516.0"/>
      <point x="332.8" y="-516.0" type="curve" smooth="yes"/>
      <point x="289.5" y="-516.0"/>
      <point x="235.3" y="-510.1"/>
      <point x="205.7" y="-498.3" type="curve"/>
      <point x="208.6" y="-648.0" type="line"/>
      <point x="263.8" y="-662.8"/>
      <point x="297.3" y="-672.6"/>
    </contour>
  </outline>
</glyph>
<glyph name="approxequal" format="1">
  <advance width="2276.2"/>
  <unicode hex="2248"/>
  <outline>
    <contour>
      <point x="390.4" y="440.1" type="line"/>
      <point x="420.0" y="541.6"/>
      <point x="476.1" y="631.2"/>
      <point x="600.2" y="631.2" type="curve" smooth="yes"/>
      <point x="632.7" y="631.2"/>
      <point x="665.3" y="623.4"/>
      <point x="700.7" y="608.6" type="curve" smooth="yes"/>
      <point x="759.9" y="583.0"/>
      <point x="840.6" y="533.8"/>
      <point x="897.8" y="504.2" type="curve" smooth="yes"/>
      <point x="960.9" y="471.7"/>
      <point x="1027.8" y="441.1"/>
      <point x="1119.4" y="441.1" type="curve" smooth="yes"/>
      <point x="1320.4" y="441.1"/>
      <point x="1415.0" y="571.2"/>
      <point x="1453.4" y="737.6" type="curve"/>
      <point x="1326.3" y="770.1" type="line"/>
      <point x="1290.8" y="673.6"/>
      <point x="1241.6" y="577.1"/>
      <point x="1126.3" y="577.1" type="curve" smooth="yes"/>
      <point x="1092.8" y="577.1"/>
      <point x="1057.3" y="588.8"/>
      <point x="1017.9" y="607.6" type="curve" smooth="yes"/>
      <point x="978.5" y="628.2"/>
      <point x="936.2" y="649.9"/>
      <point x="891.9" y="673.6" type="curve" smooth="yes"/>
      <point x="814.1" y="716.9"/>
      <point x="715.6" y="770.1"/>
      <point x="603.2" y="770.1" type="curve" smooth="yes"/>
      <point x="407.2" y="770.1"/>
      <point x="298.8" y="639.1"/>
      <point x="258.4" y="472.6" type="curve"/>
    </contour>
    <contour>
      <point x="388.5" y="871.6" type="line"/>
      <point x="419.0" y="972.1"/>
      <point x="473.2" y="1061.8"/>
      <point x="595.4" y="1061.8" type="curve" smooth="yes"/>
      <point x="628.8" y="1061.8"/>
      <point x="662.3" y="1054.9"/>
      <point x="695.8" y="1040.1" type="curve" smooth="yes"/>
      <point x="755.9" y="1013.5"/>
      <point x="835.7" y="964.3"/>
      <point x="894.8" y="934.7" type="curve" smooth="yes"/>
      <point x="960.8" y="901.2"/>
      <point x="1023.9" y="871.6"/>
      <point x="1116.5" y="871.6" type="curve" smooth="yes"/>
      <point x="1316.5" y="871.6"/>
      <point x="1416.0" y="1000.6"/>
      <point x="1451.4" y="1168.1" type="curve"/>
      <point x="1324.3" y="1200.6" type="line"/>
      <point x="1288.9" y="1101.1"/>
      <point x="1240.6" y="1007.6"/>
      <point x="1123.4" y="1007.6" type="curve" smooth="yes"/>
      <point x="1091.9" y="1007.6"/>
      <point x="1059.3" y="1016.4"/>
      <point x="1021.9" y="1031.2" type="curve" smooth="yes"/>
      <point x="897.7" y="1082.4"/>
      <point x="770.7" y="1198.7"/>
      <point x="600.3" y="1198.7" type="curve" smooth="yes"/>
      <point x="402.3" y="1198.7"/>
      <point x="293.9" y="1073.5"/>
      <point x="255.5" y="903.1" type="curve"/>
    </contour>
  </outline>
</glyph>
<glyph name="notequal" format="1">
  <advance width="2276.2"/>
  <unicode hex="2260"/>
  <outline>
    <contour>
      <point x="612.7" y="77.5" type="line"/>
      <point x="776.1" y="399.7" type="line"/>
      <point x="1452.0" y="399.7" type="line"/>
      <point x="1441.2" y="539.5" type="line"/>
      <point x="843.2" y="539.5" type="line"/>
      <point x="1014.6" y="866.6" type="line"/>
      <point x="1452.0" y="866.6" type="line"/>
      <point x="1440.2" y="1006.5" type="line"/>
      <point x="1081.6" y="1006.5" type="line"/>
      <point x="1228.4" y="1302.1" type="line"/>
      <point x="1084.5" y="1323.7" type="line"/>
      <point x="926.9" y="1006.5" type="line"/>
      <point x="269.8" y="1006.5" type="line"/>
      <point x="280.7" y="866.6" type="line"/>
      <point x="860.9" y="866.6" type="line"/>
      <point x="691.4" y="539.5" type="line"/>
      <point x="270.8" y="539.5" type="line"/>
      <point x="280.7" y="399.7" type="line"/>
      <point x="619.6" y="399.7" type="line"/>
      <point x="472.7" y="98.2" type="line"/>
    </contour>
  </outline>
</glyph>
<glyph name="lessequal" format="1">
  <advance width="2276.2"/>
  <unicode hex="2264"/>
  <outline>
    <contour>
      <point x="1410.6" y="254.7" type="line"/>
      <point x="1410.6" y="417.3" type="line"/>
      <point x="515.1" y="825.2" type="line"/>
      <point x="1410.6" y="1252.7" type="line"/>
      <point x="1410.6" y="1415.2" type="line"/>
      <point x="313.1" y="868.5" type="line"/>
      <point x="313.1" y="774.9" type="line"/>
    </contour>
    <contour>
      <point x="271.7" y="14.4" type="line"/>
      <point x="1444.1" y="14.4" type="line"/>
      <point x="1444.1" y="156.2" type="line"/>
      <point x="271.7" y="156.2" type="line"/>
    </contour>
  </outline>
</glyph>
<glyph name="greaterequal" format="1">
  <advance width="2274.3"/>
  <unicode hex="2265"/>
  <outline>
    <contour>
      <point x="307.2" y="256.7" type="line"/>
      <point x="1417.5" y="776.9" type="line"/>
      <point x="1417.5" y="869.5" type="line"/>
      <point x="311.2" y="1417.2" type="line"/>
      <point x="311.2" y="1255.6" type="line"/>
      <point x="1211.6" y="822.2" type="line"/>
      <point x="307.2" y="420.2" type="line"/>
    </contour>
    <contour>
      <point x="271.7" y="14.4" type="line"/>
      <point x="1440.1" y="14.4" type="line"/>
      <point x="1440.1" y="156.2" type="line"/>
      <point x="271.7" y="156.2" type="line"/>
    </contour>
  </outline>
</glyph>
<glyph name="lozenge" format="1">
  <advance width="2103.0"/>
  <unicode hex="25CA"/>
  <outline>
    <contour>
      <point x="709.6" y="-75.6" type="line"/>
      <point x="831.8" y="-75.6" type="line"/>
      <point x="1365.8" y="799.3" type="line"/>
      <point x="841.7" y="1677.0" type="line"/>
      <point x="717.6" y="1677.0" type="line"/>
      <point x="188.5" y="798.3" type="line"/>
    </contour>
    <contour>
      <point x="770.7" y="89.9" type="curve"/>
      <point x="637.7" y="330.3"/>
      <point x="496.9" y="563.8"/>
      <point x="360.9" y="801.2" type="curve"/>
      <point x="500.8" y="1036.7"/>
      <point x="648.6" y="1264.3"/>
      <point x="782.5" y="1507.6" type="curve"/>
      <point x="913.6" y="1267.2"/>
      <point x="1055.4" y="1035.7"/>
      <point x="1191.4" y="798.3" type="curve"/>
      <point x="1051.5" y="560.9"/>
      <point x="904.7" y="332.2"/>
    </contour>
  </outline>
</glyph>
<glyph name="uniF6C3" format="1">
  <advance width="1009.4"/>
  <unicode hex="F6C3"/>
  <outline>
    <contour>
      <point x="185.6" y="-1016.1" type="line"/>
      <point x="336.4" y="-1016.1" type="line"/>
      <point x="524.6" y="-481.1" type="line"/>
      <point x="308.8" y="-481.1" type="line"/>
    </contour>
  </outline>
</glyph>
<glyph name="uniFB01" format="1">
  <advance width="2030.3"/>
  <unicode hex="FB01"/>
  <outline>
    <contour>
      <point x="309.0" y="0.0" type="line"/>
      <point x="499.2" y="0.0" type="line"/>
      <point x="499.2" y="1063.0" type="line"/>
      <point x="1029.2" y="1063.0" type="line"/>
      <point x="1029.2" y="0.0" type="line"/>
      <point x="1220.3" y="0.0" type="line"/>
      <point x="1220.3" y="1187.1" type="line"/>
      <point x="499.2" y="1187.1" type="line"/>
      <point x="500.2" y="1344.7" type="line" smooth="yes"/>
      <point x="500.2" y="1500.4"/>
      <point x="530.7" y="1595.0"/>
      <point x="686.4" y="1595.0" type="curve" smooth="yes"/>
      <point x="728.8" y="1595.0"/>
      <point x="783.9" y="1589.1"/>
      <point x="813.5" y="1577.3" type="curve"/>
      <point x="811.5" y="1727.9" type="line"/>
      <point x="760.3" y="1738.8"/>
      <point x="717.0" y="1751.6"/>
      <point x="653.9" y="1751.6" type="curve" smooth="yes"/>
      <point x="395.8" y="1751.6"/>
      <point x="313.1" y="1570.4"/>
      <point x="310.1" y="1316.2" type="curve" smooth="yes"/>
      <point x="309.0" y="1187.1" type="line"/>
      <point x="75.6" y="1187.1" type="line"/>
      <point x="75.6" y="1063.0" type="line"/>
      <point x="309.0" y="1063.0" type="line"/>
    </contour>
    <contour>
      <point x="1038.1" y="1512.2" type="line"/>
      <point x="1215.4" y="1512.2" type="line"/>
      <point x="1215.4" y="1691.5" type="line"/>
      <point x="1038.1" y="1691.5" type="line"/>
    </contour>
  </outline>
</glyph>
<glyph name="a.alt" format="1">
  <advance width="2054.2"/>
  <outline>
    <contour>
      <point x="686.2" y="-38.3" type="curve" smooth="yes"/>
      <point x="827.1" y="-38.3"/>
      <point x="1009.3" y="2.2"/>
      <point x="1116.7" y="179.5" type="curve"/>
      <point x="1148.2" y="40.6"/>
      <point x="1284.2" y="-16.6"/>
      <point x="1384.7" y="-16.6" type="curve"/>
      <point x="1424.1" y="148.9" type="line"/>
      <point x="1364.0" y="148.9"/>
      <point x="1279.3" y="183.5"/>
      <point x="1279.3" y="318.4" type="curve" smooth="yes"/>
      <point x="1279.3" y="588.3" type="line" smooth="yes"/>
      <point x="1279.3" y="1062.1"/>
      <point x="1044.9" y="1204.1"/>
      <point x="756.2" y="1204.1" type="curve" smooth="yes"/>
      <point x="374.9" y="1204.1"/>
      <point x="148.3" y="964.6"/>
      <point x="148.3" y="559.7" type="curve" smooth="yes"/>
      <point x="148.3" y="210.0"/>
      <point x="371.0" y="-38.3"/>
    </contour>
    <contour>
      <point x="707.9" y="123.3" type="curve" smooth="yes"/>
      <point x="494.1" y="123.3"/>
      <point x="341.4" y="309.5"/>
      <point x="341.4" y="570.6" type="curve" smooth="yes"/>
      <point x="341.4" y="869.0"/>
      <point x="498.0" y="1044.4"/>
      <point x="761.0" y="1044.4" type="curve" smooth="yes"/>
      <point x="969.9" y="1044.4"/>
      <point x="1089.2" y="930.1"/>
      <point x="1089.2" y="594.2" type="curve" smooth="yes"/>
      <point x="1089.2" y="302.6"/>
      <point x="1004.4" y="123.3"/>
    </contour>
  </outline>
</glyph>
<glyph name="n.alt" format="1">
  <advance width="2127.9"/>
  <outline>
    <contour>
      <point x="1349.8" y="-40.2" type="curve"/>
      <point x="1390.3" y="105.6" type="line"/>
      <point x="1303.6" y="123.3"/>
      <point x="1290.8" y="152.8"/>
      <point x="1290.8" y="282.9" type="curve" smooth="yes"/>
      <point x="1290.8" y="299.7" type="line"/>
      <point x="1293.7" y="643.5" type="line"/>
      <point x="1293.7" y="655.3" type="line" smooth="yes"/>
      <point x="1293.7" y="991.2"/>
      <point x="1192.2" y="1202.2"/>
      <point x="853.3" y="1202.2" type="curve" smooth="yes"/>
      <point x="658.3" y="1202.2"/>
      <point x="562.7" y="1129.3"/>
      <point x="478.0" y="1009.1" type="curve"/>
      <point x="452.4" y="1173.6" type="line"/>
      <point x="259.3" y="1173.6" type="line"/>
      <point x="267.1" y="1117.4"/>
      <point x="289.8" y="894.7"/>
      <point x="289.8" y="796.2" type="curve" smooth="yes"/>
      <point x="289.8" y="-12.6" type="line"/>
      <point x="480.0" y="-12.6" type="line"/>
      <point x="480.0" y="742.0" type="line" smooth="yes"/>
      <point x="480.0" y="911.5"/>
      <point x="642.5" y="1041.5"/>
      <point x="820.8" y="1041.5" type="curve" smooth="yes"/>
      <point x="1065.1" y="1041.5"/>
      <point x="1102.6" y="901.6"/>
      <point x="1102.6" y="664.2" type="curve" smooth="yes"/>
      <point x="1102.6" y="648.5" type="line"/>
      <point x="1100.6" y="294.7" type="line"/>
      <point x="1100.6" y="274.1" type="line" smooth="yes"/>
      <point x="1100.6" y="59.3"/>
      <point x="1132.1" y="-14.6"/>
    </contour>
  </outline>
</glyph>
<glyph name="s.alt" format="1">
  <advance width="1686.8"/>
  <outline>
    <contour>
      <point x="698.7" y="-44.0" type="curve" smooth="yes"/>
      <point x="914.5" y="-44.0"/>
      <point x="1103.6" y="45.7"/>
      <point x="1103.6" y="314.6" type="curve" smooth="yes"/>
      <point x="1103.6" y="555.0"/>
      <point x="881.0" y="619.0"/>
      <point x="695.8" y="676.1" type="curve" smooth="yes"/>
      <point x="586.4" y="709.6"/>
      <point x="390.3" y="742.1"/>
      <point x="390.3" y="882.0" type="curve" smooth="yes"/>
      <point x="390.3" y="1006.1"/>
      <point x="501.7" y="1046.6"/>
      <point x="630.7" y="1046.6" type="curve" smooth="yes"/>
      <point x="760.8" y="1046.6"/>
      <point x="907.5" y="1004.2"/>
      <point x="970.6" y="962.8" type="curve"/>
      <point x="1024.8" y="1103.7" type="line"/>
      <point x="911.5" y="1172.6"/>
      <point x="767.7" y="1208.1"/>
      <point x="631.7" y="1208.1" type="curve" smooth="yes"/>
      <point x="400.2" y="1208.1"/>
      <point x="191.4" y="1104.7"/>
      <point x="191.4" y="878.1" type="curve" smooth="yes"/>
      <point x="191.4" y="645.6"/>
      <point x="387.4" y="578.6"/>
      <point x="578.5" y="521.5" type="curve" smooth="yes"/>
      <point x="702.6" y="485.0"/>
      <point x="914.5" y="453.5"/>
      <point x="914.5" y="300.8" type="curve" smooth="yes"/>
      <point x="914.5" y="159.0"/>
      <point x="805.1" y="115.6"/>
      <point x="672.1" y="115.6" type="curve" smooth="yes"/>
      <point x="517.5" y="115.6"/>
      <point x="333.2" y="182.6"/>
      <point x="246.5" y="248.6" type="curve"/>
      <point x="191.4" y="90.0" type="line"/>
      <point x="314.5" y="14.2"/>
      <point x="518.4" y="-44.0"/>
    </contour>
  </outline>
</glyph>
<glyph name="u.alt" format="1">
  <advance width="2046.6"/>
  <outline>
    <contour>
      <point x="675.8" y="-40.2" type="curve" smooth="yes"/>
      <point x="859.0" y="-40.2"/>
      <point x="997.8" y="31.7"/>
      <point x="1092.4" y="166.7" type="curve"/>
      <point x="1123.9" y="38.6"/>
      <point x="1236.3" y="-17.5"/>
      <point x="1348.6" y="-17.5" type="curve"/>
      <point x="1389.0" y="148.9" type="line"/>
      <point x="1328.9" y="148.9"/>
      <point x="1245.2" y="184.4"/>
      <point x="1245.2" y="318.4" type="curve" smooth="yes"/>
      <point x="1245.2" y="1173.6" type="line"/>
      <point x="1055.0" y="1173.6" type="line"/>
      <point x="1055.0" y="470.2" type="line" smooth="yes"/>
      <point x="1055.0" y="243.6"/>
      <point x="871.8" y="124.3"/>
      <point x="705.3" y="124.3" type="curve" smooth="yes"/>
      <point x="565.4" y="124.3"/>
      <point x="439.2" y="199.2"/>
      <point x="439.2" y="425.8" type="curve" smooth="yes"/>
      <point x="439.2" y="676.0" type="line" smooth="yes"/>
      <point x="439.2" y="1042.4"/>
      <point x="393.0" y="1173.6"/>
      <point x="393.0" y="1173.6" type="curve"/>
      <point x="202.8" y="1173.6" type="line"/>
      <point x="202.8" y="1173.6"/>
      <point x="247.2" y="995.2"/>
      <point x="247.2" y="660.3" type="curve" smooth="yes"/>
      <point x="247.2" y="425.8" type="line" smooth="yes"/>
      <point x="247.2" y="95.8"/>
      <point x="452.1" y="-40.2"/>
    </contour>
  </outline>
</glyph>
